<mxfile host="Electron" agent="Mozilla/5.0 (Windows NT 10.0; Win64; x64) AppleWebKit/537.36 (KHTML, like Gecko) draw.io/24.7.5 Chrome/126.0.6478.183 Electron/31.3.0 Safari/537.36" version="24.7.5">
  <diagram name="第 1 页" id="Oy6vePk9fZv1lUs2WGVE">
    <mxGraphModel dx="2670" dy="2056" grid="1" gridSize="10" guides="1" tooltips="1" connect="1" arrows="1" fold="1" page="1" pageScale="1" pageWidth="827" pageHeight="1169" math="0" shadow="0">
      <root>
        <mxCell id="0" />
        <mxCell id="1" parent="0" />
        <mxCell id="88wGjKEd4IUI13QPvUiT-1" value="&lt;font style=&quot;font-size: 18px;&quot;&gt;User&lt;/font&gt;" style="swimlane;fontStyle=1;align=center;verticalAlign=top;childLayout=stackLayout;horizontal=1;startSize=40;horizontalStack=0;resizeParent=1;resizeParentMax=0;resizeLast=0;collapsible=1;marginBottom=0;whiteSpace=wrap;html=1;" parent="1" vertex="1">
          <mxGeometry x="670" y="170" width="1050" height="830" as="geometry" />
        </mxCell>
        <mxCell id="88wGjKEd4IUI13QPvUiT-2" value="&lt;font style=&quot;font-size: 16px;&quot;&gt;- userId: int&lt;/font&gt;&lt;div&gt;&lt;font size=&quot;3&quot;&gt;- userName: int&lt;/font&gt;&lt;div&gt;&lt;font size=&quot;3&quot;&gt;- password: string&lt;/font&gt;&lt;div&gt;&lt;font size=&quot;3&quot;&gt;- telephone: string&lt;/font&gt;&lt;div&gt;&lt;font size=&quot;3&quot;&gt;- registrationDate: date-time&lt;/font&gt;&lt;div&gt;&lt;font size=&quot;3&quot;&gt;- lastLoginTime: date-time&lt;/font&gt;&lt;/div&gt;&lt;div&gt;&lt;font size=&quot;3&quot;&gt;-&amp;nbsp;role: int&lt;/font&gt;&lt;/div&gt;&lt;div&gt;&lt;font size=&quot;3&quot;&gt;- status: int&lt;/font&gt;&lt;/div&gt;&lt;div&gt;&lt;font size=&quot;3&quot;&gt;- avatarUrl: string&lt;/font&gt;&lt;/div&gt;&lt;div&gt;&lt;font size=&quot;3&quot;&gt;- profile: string&lt;/font&gt;&lt;/div&gt;&lt;div&gt;&lt;font size=&quot;3&quot;&gt;- gender: int&lt;/font&gt;&lt;/div&gt;&lt;div&gt;&lt;font size=&quot;3&quot;&gt;-&amp;nbsp;birthdate:&amp;nbsp;date-time&lt;/font&gt;&lt;/div&gt;&lt;div&gt;&lt;font size=&quot;3&quot;&gt;-&amp;nbsp;experiencePoints: int&lt;/font&gt;&lt;/div&gt;&lt;div&gt;&lt;font size=&quot;3&quot;&gt;-&amp;nbsp;followsCount: int&lt;/font&gt;&lt;/div&gt;&lt;div&gt;&lt;font size=&quot;3&quot;&gt;-&amp;nbsp;followedCount: int&lt;/font&gt;&lt;/div&gt;&lt;div&gt;&lt;font size=&quot;3&quot;&gt;-&amp;nbsp;favoritesCount: int&lt;/font&gt;&lt;/div&gt;&lt;div&gt;&lt;font size=&quot;3&quot;&gt;-&amp;nbsp;favoritedCount: int&lt;/font&gt;&lt;/div&gt;&lt;div&gt;&lt;font size=&quot;3&quot;&gt;-&amp;nbsp;likesCount: int&lt;/font&gt;&lt;/div&gt;&lt;div&gt;&lt;font size=&quot;3&quot;&gt;-&amp;nbsp;likedCount: int&lt;/font&gt;&lt;/div&gt;&lt;div&gt;&lt;font size=&quot;3&quot;&gt;-&amp;nbsp;messageCount: int&lt;/font&gt;&lt;/div&gt;&lt;/div&gt;&lt;/div&gt;&lt;/div&gt;&lt;/div&gt;" style="text;strokeColor=none;fillColor=none;align=left;verticalAlign=top;spacingLeft=4;spacingRight=4;overflow=hidden;rotatable=0;points=[[0,0.5],[1,0.5]];portConstraint=eastwest;whiteSpace=wrap;html=1;" parent="88wGjKEd4IUI13QPvUiT-1" vertex="1">
          <mxGeometry y="40" width="1050" height="390" as="geometry" />
        </mxCell>
        <mxCell id="88wGjKEd4IUI13QPvUiT-3" value="" style="line;strokeWidth=1;fillColor=none;align=left;verticalAlign=middle;spacingTop=-1;spacingLeft=3;spacingRight=3;rotatable=0;labelPosition=right;points=[];portConstraint=eastwest;strokeColor=inherit;" parent="88wGjKEd4IUI13QPvUiT-1" vertex="1">
          <mxGeometry y="430" width="1050" height="20" as="geometry" />
        </mxCell>
        <mxCell id="88wGjKEd4IUI13QPvUiT-4" value="&lt;span style=&quot;forced-color-adjust: none; color: rgb(0, 0, 0); font-style: normal; font-variant-ligatures: normal; font-variant-caps: normal; font-weight: 400; letter-spacing: normal; orphans: 2; text-indent: 0px; text-transform: none; widows: 2; word-spacing: 0px; -webkit-text-stroke-width: 0px; text-decoration-thickness: initial; text-decoration-style: initial; text-decoration-color: initial; font-family: &amp;quot;Noto Sans SC&amp;quot;; font-size: medium; text-align: start; white-space: pre; background-color: rgb(250, 250, 250); float: none; display: inline !important;&quot;&gt;+ GET /api/user: Task&amp;lt;ActionResult&amp;lt;IEnumerable&amp;lt;User&amp;gt;&amp;gt;&amp;gt; &lt;/span&gt;&lt;div style=&quot;forced-color-adjust: none; color: rgb(0, 0, 0); font-family: Helvetica; font-size: 12px; font-style: normal; font-variant-ligatures: normal; font-variant-caps: normal; font-weight: 400; letter-spacing: normal; orphans: 2; text-align: left; text-indent: 0px; text-transform: none; widows: 2; word-spacing: 0px; -webkit-text-stroke-width: 0px; white-space: normal; background-color: rgb(251, 251, 251); text-decoration-thickness: initial; text-decoration-style: initial; text-decoration-color: initial;&quot;&gt;&lt;font style=&quot;forced-color-adjust: none;&quot; size=&quot;3&quot; face=&quot;Noto Sans SC&quot;&gt;&lt;span style=&quot;forced-color-adjust: none; white-space: pre;&quot;&gt;+ GET &lt;/span&gt;&lt;/font&gt;&lt;span style=&quot;forced-color-adjust: none; font-family: &amp;quot;Noto Sans SC&amp;quot;; font-size: medium; white-space: pre; background-color: rgb(250, 250, 250);&quot;&gt;/api/user/{id: int}: &lt;/span&gt;&lt;font style=&quot;forced-color-adjust: none;&quot; size=&quot;3&quot; face=&quot;Noto Sans SC&quot;&gt;&lt;span style=&quot;forced-color-adjust: none; white-space: pre;&quot;&gt;Task&amp;lt;ActionResult&amp;lt;User&amp;gt;&amp;gt;&lt;/span&gt;&lt;/font&gt;&lt;/div&gt;&lt;div style=&quot;forced-color-adjust: none; color: rgb(0, 0, 0); font-family: Helvetica; font-size: 12px; font-style: normal; font-variant-ligatures: normal; font-variant-caps: normal; font-weight: 400; letter-spacing: normal; orphans: 2; text-align: left; text-indent: 0px; text-transform: none; widows: 2; word-spacing: 0px; -webkit-text-stroke-width: 0px; white-space: normal; background-color: rgb(251, 251, 251); text-decoration-thickness: initial; text-decoration-style: initial; text-decoration-color: initial;&quot;&gt;&lt;font style=&quot;forced-color-adjust: none;&quot; size=&quot;3&quot; face=&quot;Noto Sans SC&quot;&gt;&lt;span style=&quot;forced-color-adjust: none; white-space: pre;&quot;&gt;+ GET &lt;/span&gt;&lt;/font&gt;&lt;span style=&quot;forced-color-adjust: none; font-family: &amp;quot;Noto Sans SC&amp;quot;; font-size: medium; white-space: pre; background-color: rgb(250, 250, 250);&quot;&gt;/api/user/user-name/{id: int}: &lt;/span&gt;&lt;font style=&quot;forced-color-adjust: none;&quot; size=&quot;3&quot; face=&quot;Noto Sans SC&quot;&gt;&lt;span style=&quot;forced-color-adjust: none; white-space: pre;&quot;&gt;Task&amp;lt;ActionResult&amp;lt;User&amp;gt;&amp;gt;&lt;/span&gt;&lt;/font&gt;&lt;/div&gt;&lt;div style=&quot;forced-color-adjust: none; color: rgb(0, 0, 0); font-family: Helvetica; font-size: 12px; font-style: normal; font-variant-ligatures: normal; font-variant-caps: normal; font-weight: 400; letter-spacing: normal; orphans: 2; text-align: left; text-indent: 0px; text-transform: none; widows: 2; word-spacing: 0px; -webkit-text-stroke-width: 0px; white-space: normal; background-color: rgb(251, 251, 251); text-decoration-thickness: initial; text-decoration-style: initial; text-decoration-color: initial;&quot;&gt;&lt;font style=&quot;forced-color-adjust: none;&quot; size=&quot;3&quot; face=&quot;Noto Sans SC&quot;&gt;&lt;span style=&quot;forced-color-adjust: none; white-space: pre;&quot;&gt;+ GET &lt;/span&gt;&lt;/font&gt;&lt;span style=&quot;forced-color-adjust: none; background-color: rgb(250, 250, 250); font-family: &amp;quot;Noto Sans SC&amp;quot;; font-size: medium; white-space: pre;&quot;&gt;/api/user/telephone/{id: int}: &lt;/span&gt;&lt;span style=&quot;forced-color-adjust: none; background-color: initial; white-space: pre;&quot;&gt;&lt;font style=&quot;forced-color-adjust: none;&quot; size=&quot;3&quot; face=&quot;Noto Sans SC&quot;&gt;Task&amp;lt;ActionResult&amp;lt;User&amp;gt;&amp;gt;&lt;/font&gt;&lt;/span&gt;&lt;/div&gt;&lt;div style=&quot;forced-color-adjust: none; color: rgb(0, 0, 0); font-family: Helvetica; font-size: 12px; font-style: normal; font-variant-ligatures: normal; font-variant-caps: normal; font-weight: 400; letter-spacing: normal; orphans: 2; text-align: left; text-indent: 0px; text-transform: none; widows: 2; word-spacing: 0px; -webkit-text-stroke-width: 0px; white-space: normal; background-color: rgb(251, 251, 251); text-decoration-thickness: initial; text-decoration-style: initial; text-decoration-color: initial;&quot;&gt;&lt;span style=&quot;forced-color-adjust: none; background-color: initial; white-space: pre;&quot;&gt;&lt;font style=&quot;forced-color-adjust: none;&quot; size=&quot;3&quot; face=&quot;Noto Sans SC&quot;&gt;+ GET &lt;/font&gt;&lt;/span&gt;&lt;span style=&quot;forced-color-adjust: none; background-color: rgb(250, 250, 250); font-family: &amp;quot;Noto Sans SC&amp;quot;; font-size: medium; white-space: pre;&quot;&gt;/api/user/avatar-url/{id: int}: &lt;/span&gt;&lt;span style=&quot;forced-color-adjust: none; background-color: initial; white-space: pre;&quot;&gt;&lt;font style=&quot;forced-color-adjust: none;&quot; size=&quot;3&quot; face=&quot;Noto Sans SC&quot;&gt;Task&amp;lt;ActionResult&amp;lt;User&amp;gt;&amp;gt;&lt;/font&gt;&lt;/span&gt;&lt;/div&gt;&lt;div style=&quot;forced-color-adjust: none; color: rgb(0, 0, 0); font-family: Helvetica; font-size: 12px; font-style: normal; font-variant-ligatures: normal; font-variant-caps: normal; font-weight: 400; letter-spacing: normal; orphans: 2; text-align: left; text-indent: 0px; text-transform: none; widows: 2; word-spacing: 0px; -webkit-text-stroke-width: 0px; white-space: normal; background-color: rgb(251, 251, 251); text-decoration-thickness: initial; text-decoration-style: initial; text-decoration-color: initial;&quot;&gt;&lt;span style=&quot;forced-color-adjust: none; background-color: initial; white-space: pre;&quot;&gt;&lt;font style=&quot;forced-color-adjust: none;&quot; size=&quot;3&quot; face=&quot;Noto Sans SC&quot;&gt;+ GET &lt;/font&gt;&lt;/span&gt;&lt;span style=&quot;forced-color-adjust: none; background-color: rgb(250, 250, 250); font-family: &amp;quot;Noto Sans SC&amp;quot;; font-size: medium; white-space: pre;&quot;&gt;/api/user/role/{id: int}: &lt;/span&gt;&lt;span style=&quot;forced-color-adjust: none; background-color: initial; white-space: pre;&quot;&gt;&lt;font style=&quot;forced-color-adjust: none;&quot; size=&quot;3&quot; face=&quot;Noto Sans SC&quot;&gt;Task&amp;lt;ActionResult&amp;lt;User&amp;gt;&amp;gt;&lt;/font&gt;&lt;/span&gt;&lt;/div&gt;&lt;div style=&quot;forced-color-adjust: none; color: rgb(0, 0, 0); font-family: Helvetica; font-size: 12px; font-style: normal; font-variant-ligatures: normal; font-variant-caps: normal; font-weight: 400; letter-spacing: normal; orphans: 2; text-align: left; text-indent: 0px; text-transform: none; widows: 2; word-spacing: 0px; -webkit-text-stroke-width: 0px; white-space: normal; background-color: rgb(251, 251, 251); text-decoration-thickness: initial; text-decoration-style: initial; text-decoration-color: initial;&quot;&gt;&lt;span style=&quot;forced-color-adjust: none; background-color: initial; white-space: pre;&quot;&gt;&lt;font style=&quot;forced-color-adjust: none;&quot; size=&quot;3&quot; face=&quot;Noto Sans SC&quot;&gt;+ DELETE &lt;/font&gt;&lt;/span&gt;&lt;span style=&quot;forced-color-adjust: none; background-color: rgb(250, 250, 250); font-family: &amp;quot;Noto Sans SC&amp;quot;; font-size: medium; white-space: pre;&quot;&gt;/api/user/{id: int}: &lt;/span&gt;&lt;span style=&quot;forced-color-adjust: none; background-color: initial; white-space: pre;&quot;&gt;&lt;font style=&quot;forced-color-adjust: none;&quot; size=&quot;3&quot; face=&quot;Noto Sans SC&quot;&gt;Task&amp;lt;ActionResult&amp;lt;User&amp;gt;&amp;gt;&lt;/font&gt;&lt;/span&gt;&lt;/div&gt;&lt;div style=&quot;forced-color-adjust: none; color: rgb(0, 0, 0); font-family: Helvetica; font-size: 12px; font-style: normal; font-variant-ligatures: normal; font-variant-caps: normal; font-weight: 400; letter-spacing: normal; orphans: 2; text-align: left; text-indent: 0px; text-transform: none; widows: 2; word-spacing: 0px; -webkit-text-stroke-width: 0px; white-space: normal; background-color: rgb(251, 251, 251); text-decoration-thickness: initial; text-decoration-style: initial; text-decoration-color: initial;&quot;&gt;&lt;span style=&quot;forced-color-adjust: none; background-color: initial; white-space: pre;&quot;&gt;&lt;font style=&quot;forced-color-adjust: none;&quot; size=&quot;3&quot; face=&quot;Noto Sans SC&quot;&gt;+ POST &lt;/font&gt;&lt;/span&gt;&lt;span style=&quot;forced-color-adjust: none; background-color: rgb(250, 250, 250); font-family: &amp;quot;Noto Sans SC&amp;quot;; font-size: medium; white-space: pre;&quot;&gt;/api/user {&lt;/span&gt;&lt;span style=&quot;forced-color-adjust: none; background-color: initial; white-space: pre;&quot;&gt;&lt;font style=&quot;forced-color-adjust: none;&quot; size=&quot;3&quot; face=&quot;Noto Sans SC&quot;&gt;[FromBody] User user}&lt;/font&gt;&lt;/span&gt;&lt;span style=&quot;forced-color-adjust: none; background-color: rgb(250, 250, 250); font-family: &amp;quot;Noto Sans SC&amp;quot;; font-size: medium; white-space: pre;&quot;&gt;: &lt;/span&gt;&lt;span style=&quot;forced-color-adjust: none; background-color: initial; white-space: pre;&quot;&gt;&lt;font style=&quot;forced-color-adjust: none;&quot; size=&quot;3&quot; face=&quot;Noto Sans SC&quot;&gt;Task&amp;lt;IActionResult&amp;gt;&lt;/font&gt;&lt;/span&gt;&lt;/div&gt;&lt;div style=&quot;forced-color-adjust: none; color: rgb(0, 0, 0); font-family: Helvetica; font-size: 12px; font-style: normal; font-variant-ligatures: normal; font-variant-caps: normal; font-weight: 400; letter-spacing: normal; orphans: 2; text-align: left; text-indent: 0px; text-transform: none; widows: 2; word-spacing: 0px; -webkit-text-stroke-width: 0px; white-space: normal; background-color: rgb(251, 251, 251); text-decoration-thickness: initial; text-decoration-style: initial; text-decoration-color: initial;&quot;&gt;&lt;span style=&quot;forced-color-adjust: none; background-color: initial; white-space: pre;&quot;&gt;&lt;font style=&quot;forced-color-adjust: none;&quot; size=&quot;3&quot; face=&quot;Noto Sans SC&quot;&gt;+ PUT &lt;/font&gt;&lt;/span&gt;&lt;span style=&quot;forced-color-adjust: none; background-color: rgb(250, 250, 250); font-family: &amp;quot;Noto Sans SC&amp;quot;; font-size: medium; white-space: pre;&quot;&gt;/api/user/{id: int} {&lt;/span&gt;&lt;span style=&quot;forced-color-adjust: none; background-color: initial; white-space: pre;&quot;&gt;&lt;font style=&quot;forced-color-adjust: none;&quot; size=&quot;3&quot; face=&quot;Noto Sans SC&quot;&gt;[FromBody] User user}: &lt;/font&gt;&lt;/span&gt;&lt;span style=&quot;forced-color-adjust: none; background-color: initial; white-space: pre;&quot;&gt;&lt;font style=&quot;forced-color-adjust: none;&quot; size=&quot;3&quot; face=&quot;Noto Sans SC&quot;&gt;Task&amp;lt;IActionResult&amp;gt;&lt;/font&gt;&lt;/span&gt;&lt;/div&gt;&lt;div style=&quot;forced-color-adjust: none; color: rgb(0, 0, 0); font-family: Helvetica; font-size: 12px; font-style: normal; font-variant-ligatures: normal; font-variant-caps: normal; font-weight: 400; letter-spacing: normal; orphans: 2; text-align: left; text-indent: 0px; text-transform: none; widows: 2; word-spacing: 0px; -webkit-text-stroke-width: 0px; white-space: normal; background-color: rgb(251, 251, 251); text-decoration-thickness: initial; text-decoration-style: initial; text-decoration-color: initial;&quot;&gt;&lt;span style=&quot;forced-color-adjust: none; background-color: initial; white-space: pre;&quot;&gt;&lt;font style=&quot;forced-color-adjust: none;&quot; size=&quot;3&quot; face=&quot;Noto Sans SC&quot;&gt;+ PUT &lt;/font&gt;&lt;/span&gt;&lt;span style=&quot;forced-color-adjust: none; background-color: rgb(250, 250, 250); font-family: &amp;quot;Noto Sans SC&amp;quot;; font-size: medium; white-space: pre;&quot;&gt;/api/user/personal-information/{id: int} {&lt;/span&gt;&lt;span style=&quot;forced-color-adjust: none; background-color: initial; white-space: pre;&quot;&gt;&lt;font style=&quot;forced-color-adjust: none;&quot; size=&quot;3&quot; face=&quot;Noto Sans SC&quot;&gt;[FromBody] User user}: &lt;/font&gt;&lt;/span&gt;&lt;span style=&quot;forced-color-adjust: none; background-color: initial; white-space: pre;&quot;&gt;&lt;font style=&quot;forced-color-adjust: none;&quot; size=&quot;3&quot; face=&quot;Noto Sans SC&quot;&gt;Task&amp;lt;IActionResult&amp;gt;&lt;/font&gt;&lt;/span&gt;&lt;/div&gt;&lt;div style=&quot;forced-color-adjust: none; color: rgb(0, 0, 0); font-family: Helvetica; font-size: 12px; font-style: normal; font-variant-ligatures: normal; font-variant-caps: normal; font-weight: 400; letter-spacing: normal; orphans: 2; text-align: left; text-indent: 0px; text-transform: none; widows: 2; word-spacing: 0px; -webkit-text-stroke-width: 0px; white-space: normal; background-color: rgb(251, 251, 251); text-decoration-thickness: initial; text-decoration-style: initial; text-decoration-color: initial;&quot;&gt;&lt;span style=&quot;forced-color-adjust: none; background-color: initial; white-space: pre;&quot;&gt;&lt;font style=&quot;forced-color-adjust: none;&quot; size=&quot;3&quot; face=&quot;Noto Sans SC&quot;&gt;+ PUT &lt;/font&gt;&lt;/span&gt;&lt;span style=&quot;forced-color-adjust: none; background-color: rgb(250, 250, 250); font-family: &amp;quot;Noto Sans SC&amp;quot;; font-size: medium; white-space: pre;&quot;&gt;/api/user/avatar-url/{id: int} {&lt;/span&gt;&lt;span style=&quot;forced-color-adjust: none; background-color: initial; white-space: pre;&quot;&gt;&lt;font style=&quot;forced-color-adjust: none;&quot; size=&quot;3&quot; face=&quot;Noto Sans SC&quot;&gt;[FromBody] User user}: &lt;/font&gt;&lt;/span&gt;&lt;span style=&quot;forced-color-adjust: none; background-color: initial; white-space: pre;&quot;&gt;&lt;font style=&quot;forced-color-adjust: none;&quot; size=&quot;3&quot; face=&quot;Noto Sans SC&quot;&gt;Task&amp;lt;IActionResult&amp;gt;&lt;/font&gt;&lt;/span&gt;&lt;/div&gt;&lt;div style=&quot;forced-color-adjust: none; color: rgb(0, 0, 0); font-family: Helvetica; font-size: 12px; font-style: normal; font-variant-ligatures: normal; font-variant-caps: normal; font-weight: 400; letter-spacing: normal; orphans: 2; text-align: left; text-indent: 0px; text-transform: none; widows: 2; word-spacing: 0px; -webkit-text-stroke-width: 0px; white-space: normal; background-color: rgb(251, 251, 251); text-decoration-thickness: initial; text-decoration-style: initial; text-decoration-color: initial;&quot;&gt;&lt;span style=&quot;forced-color-adjust: none; background-color: initial; white-space: pre;&quot;&gt;&lt;font style=&quot;forced-color-adjust: none;&quot; size=&quot;3&quot; face=&quot;Noto Sans SC&quot;&gt;+ PUT &lt;/font&gt;&lt;/span&gt;&lt;span style=&quot;forced-color-adjust: none; background-color: rgb(250, 250, 250); font-family: &amp;quot;Noto Sans SC&amp;quot;; font-size: medium; white-space: pre;&quot;&gt;/api/user/last-login-time/{id: int} {&lt;/span&gt;&lt;span style=&quot;forced-color-adjust: none; background-color: initial; white-space: pre;&quot;&gt;&lt;font style=&quot;forced-color-adjust: none;&quot; size=&quot;3&quot; face=&quot;Noto Sans SC&quot;&gt;[FromBody] User user}: &lt;/font&gt;&lt;/span&gt;&lt;span style=&quot;forced-color-adjust: none; background-color: initial; white-space: pre;&quot;&gt;&lt;font style=&quot;forced-color-adjust: none;&quot; size=&quot;3&quot; face=&quot;Noto Sans SC&quot;&gt;Task&amp;lt;IActionResult&amp;gt;&lt;/font&gt;&lt;/span&gt;&lt;/div&gt;&lt;div style=&quot;forced-color-adjust: none; color: rgb(0, 0, 0); font-family: Helvetica; font-size: 12px; font-style: normal; font-variant-ligatures: normal; font-variant-caps: normal; font-weight: 400; letter-spacing: normal; orphans: 2; text-align: left; text-indent: 0px; text-transform: none; widows: 2; word-spacing: 0px; -webkit-text-stroke-width: 0px; white-space: normal; background-color: rgb(251, 251, 251); text-decoration-thickness: initial; text-decoration-style: initial; text-decoration-color: initial;&quot;&gt;&lt;span style=&quot;forced-color-adjust: none; background-color: initial; white-space: pre;&quot;&gt;&lt;font style=&quot;forced-color-adjust: none;&quot; size=&quot;3&quot; face=&quot;Noto Sans SC&quot;&gt;+ PUT &lt;/font&gt;&lt;/span&gt;&lt;span style=&quot;forced-color-adjust: none; background-color: rgb(250, 250, 250); font-family: &amp;quot;Noto Sans SC&amp;quot;; font-size: medium; white-space: pre;&quot;&gt;/api/user/password/{id: int} {&lt;/span&gt;&lt;span style=&quot;forced-color-adjust: none; background-color: initial; white-space: pre;&quot;&gt;&lt;font style=&quot;forced-color-adjust: none;&quot; size=&quot;3&quot; face=&quot;Noto Sans SC&quot;&gt;[FromBody] User user}: &lt;/font&gt;&lt;/span&gt;&lt;span style=&quot;forced-color-adjust: none; background-color: initial; white-space: pre;&quot;&gt;&lt;font style=&quot;forced-color-adjust: none;&quot; size=&quot;3&quot; face=&quot;Noto Sans SC&quot;&gt;Task&amp;lt;IActionResult&amp;gt;&lt;/font&gt;&lt;/span&gt;&lt;/div&gt;&lt;div style=&quot;forced-color-adjust: none; color: rgb(0, 0, 0); font-family: Helvetica; font-size: 12px; font-style: normal; font-variant-ligatures: normal; font-variant-caps: normal; font-weight: 400; letter-spacing: normal; orphans: 2; text-align: left; text-indent: 0px; text-transform: none; widows: 2; word-spacing: 0px; -webkit-text-stroke-width: 0px; white-space: normal; background-color: rgb(251, 251, 251); text-decoration-thickness: initial; text-decoration-style: initial; text-decoration-color: initial;&quot;&gt;&lt;span style=&quot;forced-color-adjust: none; background-color: initial; white-space: pre;&quot;&gt;&lt;font style=&quot;forced-color-adjust: none;&quot; size=&quot;3&quot; face=&quot;Noto Sans SC&quot;&gt;+ PUT &lt;/font&gt;&lt;/span&gt;&lt;span style=&quot;forced-color-adjust: none; background-color: rgb(250, 250, 250); font-family: &amp;quot;Noto Sans SC&amp;quot;; font-size: medium; white-space: pre;&quot;&gt;/api/user/telephone/{id: int} {&lt;/span&gt;&lt;span style=&quot;forced-color-adjust: none; background-color: initial; white-space: pre;&quot;&gt;&lt;font style=&quot;forced-color-adjust: none;&quot; size=&quot;3&quot; face=&quot;Noto Sans SC&quot;&gt;[FromBody] User user}: &lt;/font&gt;&lt;/span&gt;&lt;span style=&quot;forced-color-adjust: none; background-color: initial; white-space: pre;&quot;&gt;&lt;font style=&quot;forced-color-adjust: none;&quot; size=&quot;3&quot; face=&quot;Noto Sans SC&quot;&gt;Task&amp;lt;IActionResult&amp;gt;&lt;/font&gt;&lt;/span&gt;&lt;/div&gt;&lt;div style=&quot;forced-color-adjust: none; color: rgb(0, 0, 0); font-family: Helvetica; font-size: 12px; font-style: normal; font-variant-ligatures: normal; font-variant-caps: normal; font-weight: 400; letter-spacing: normal; orphans: 2; text-align: left; text-indent: 0px; text-transform: none; widows: 2; word-spacing: 0px; -webkit-text-stroke-width: 0px; white-space: normal; background-color: rgb(251, 251, 251); text-decoration-thickness: initial; text-decoration-style: initial; text-decoration-color: initial;&quot;&gt;&lt;span style=&quot;forced-color-adjust: none; background-color: initial; white-space: pre;&quot;&gt;&lt;font style=&quot;forced-color-adjust: none;&quot; size=&quot;3&quot; face=&quot;Noto Sans SC&quot;&gt;+ GET &lt;/font&gt;&lt;/span&gt;&lt;span style=&quot;forced-color-adjust: none; background-color: rgb(250, 250, 250); font-family: &amp;quot;Noto Sans SC&amp;quot;; font-size: medium; white-space: pre;&quot;&gt;/api/user/check-username-unique/{username: string}: &lt;/span&gt;&lt;span style=&quot;forced-color-adjust: none; background-color: initial; white-space: pre;&quot;&gt;&lt;font style=&quot;forced-color-adjust: none;&quot; size=&quot;3&quot; face=&quot;Noto Sans SC&quot;&gt;Task&amp;lt;ActionResult&amp;lt;int&amp;gt;&amp;gt;&lt;/font&gt;&lt;/span&gt;&lt;/div&gt;&lt;div style=&quot;forced-color-adjust: none; color: rgb(0, 0, 0); font-family: Helvetica; font-size: 12px; font-style: normal; font-variant-ligatures: normal; font-variant-caps: normal; font-weight: 400; letter-spacing: normal; orphans: 2; text-align: left; text-indent: 0px; text-transform: none; widows: 2; word-spacing: 0px; -webkit-text-stroke-width: 0px; white-space: normal; background-color: rgb(251, 251, 251); text-decoration-thickness: initial; text-decoration-style: initial; text-decoration-color: initial;&quot;&gt;&lt;span style=&quot;forced-color-adjust: none; background-color: initial; white-space: pre;&quot;&gt;&lt;font style=&quot;forced-color-adjust: none;&quot; size=&quot;3&quot; face=&quot;Noto Sans SC&quot;&gt;+ GET &lt;/font&gt;&lt;/span&gt;&lt;span style=&quot;forced-color-adjust: none; background-color: rgb(250, 250, 250); font-family: &amp;quot;Noto Sans SC&amp;quot;; font-size: medium; white-space: pre;&quot;&gt;/api/user/check-telephone-unique/{telephone: string}: &lt;/span&gt;&lt;span style=&quot;forced-color-adjust: none; background-color: initial; white-space: pre;&quot;&gt;&lt;font style=&quot;forced-color-adjust: none;&quot; size=&quot;3&quot; face=&quot;Noto Sans SC&quot;&gt;Task&amp;lt;ActionResult&amp;lt;int&amp;gt;&amp;gt;&lt;/font&gt;&lt;/span&gt;&lt;/div&gt;&lt;div style=&quot;forced-color-adjust: none; color: rgb(0, 0, 0); font-family: Helvetica; font-size: 12px; font-style: normal; font-variant-ligatures: normal; font-variant-caps: normal; font-weight: 400; letter-spacing: normal; orphans: 2; text-align: left; text-indent: 0px; text-transform: none; widows: 2; word-spacing: 0px; -webkit-text-stroke-width: 0px; white-space: normal; background-color: rgb(251, 251, 251); text-decoration-thickness: initial; text-decoration-style: initial; text-decoration-color: initial;&quot;&gt;&lt;span style=&quot;forced-color-adjust: none; background-color: initial; white-space: pre;&quot;&gt;&lt;font style=&quot;forced-color-adjust: none;&quot; size=&quot;3&quot; face=&quot;Noto Sans SC&quot;&gt;+ POST &lt;/font&gt;&lt;/span&gt;&lt;span style=&quot;forced-color-adjust: none; background-color: rgb(250, 250, 250); font-family: &amp;quot;Noto Sans SC&amp;quot;; font-size: medium; white-space: pre;&quot;&gt;/api/user/verify-password {&lt;/span&gt;&lt;span style=&quot;forced-color-adjust: none; background-color: initial; white-space: pre;&quot;&gt;&lt;font style=&quot;forced-color-adjust: none;&quot; size=&quot;3&quot; face=&quot;Noto Sans SC&quot;&gt;[FromBody] PasswordVerificationRequest passwordVerificationRequest}:  &lt;/font&gt;&lt;/span&gt;&lt;span style=&quot;forced-color-adjust: none; background-color: initial; white-space: pre;&quot;&gt;&lt;font style=&quot;forced-color-adjust: none;&quot; size=&quot;3&quot; face=&quot;Noto Sans SC&quot;&gt;Task&amp;lt;ActionResult&amp;lt;int&amp;gt;&amp;gt;&lt;/font&gt;&lt;/span&gt;&lt;/div&gt;&lt;div style=&quot;forced-color-adjust: none; orphans: 2; text-align: left; text-indent: 0px; widows: 2; background-color: rgb(251, 251, 251); text-decoration-thickness: initial; text-decoration-style: initial; text-decoration-color: initial;&quot;&gt;&lt;span style=&quot;color: rgb(0, 0, 0); font-family: Helvetica; font-size: 12px; font-style: normal; font-variant-ligatures: normal; font-variant-caps: normal; font-weight: 400; letter-spacing: normal; text-transform: none; word-spacing: 0px; -webkit-text-stroke-width: 0px; white-space: pre; forced-color-adjust: none; background-color: initial;&quot;&gt;&lt;font style=&quot;forced-color-adjust: none;&quot; size=&quot;3&quot; face=&quot;Noto Sans SC&quot;&gt;+ GET &lt;/font&gt;&lt;/span&gt;&lt;span style=&quot;color: rgb(0, 0, 0); font-family: &amp;quot;Noto Sans SC&amp;quot;; font-size: medium; font-style: normal; font-variant-ligatures: normal; font-variant-caps: normal; font-weight: 400; letter-spacing: normal; text-transform: none; word-spacing: 0px; -webkit-text-stroke-width: 0px; white-space: pre; background-color: rgb(250, 250, 250);&quot;&gt;/api/user/get-user-id-by-telephone/{telephone: string}: &lt;/span&gt;&lt;span style=&quot;background-color: initial; white-space: pre;&quot;&gt;&lt;font size=&quot;3&quot; face=&quot;Noto Sans SC&quot;&gt;Task&amp;lt;ActionResult&amp;lt;int&amp;gt;&amp;gt;&lt;/font&gt;&lt;/span&gt;&lt;/div&gt;&lt;br class=&quot;Apple-interchange-newline&quot;&gt;&lt;div&gt;&lt;br&gt;&lt;/div&gt;" style="text;strokeColor=none;fillColor=none;align=left;verticalAlign=top;spacingLeft=4;spacingRight=4;overflow=hidden;rotatable=0;points=[[0,0.5],[1,0.5]];portConstraint=eastwest;whiteSpace=wrap;html=1;" parent="88wGjKEd4IUI13QPvUiT-1" vertex="1">
          <mxGeometry y="450" width="1050" height="380" as="geometry" />
        </mxCell>
        <mxCell id="PzyJ5SBVM5l6bjQnl_92-1" value="&lt;font style=&quot;font-size: 18px;&quot;&gt;UserFeedback&lt;/font&gt;" style="swimlane;fontStyle=1;align=center;verticalAlign=top;childLayout=stackLayout;horizontal=1;startSize=40;horizontalStack=0;resizeParent=1;resizeParentMax=0;resizeLast=0;collapsible=1;marginBottom=0;whiteSpace=wrap;html=1;" parent="1" vertex="1">
          <mxGeometry x="240" y="-220" width="760" height="300" as="geometry" />
        </mxCell>
        <mxCell id="PzyJ5SBVM5l6bjQnl_92-2" value="&lt;font style=&quot;font-size: 16px;&quot;&gt;- feedbackId: int&lt;/font&gt;&lt;div&gt;&lt;font style=&quot;font-size: 16px;&quot;&gt;- feedbackCategory: string&lt;/font&gt;&lt;/div&gt;&lt;div&gt;&lt;font style=&quot;font-size: 16px;&quot;&gt;- feedbackContent: string&lt;/font&gt;&lt;/div&gt;&lt;div&gt;&lt;font style=&quot;font-size: 16px;&quot;&gt;- feedbackTime: string&lt;/font&gt;&lt;/div&gt;&lt;div&gt;&lt;font style=&quot;font-size: 16px;&quot;&gt;- email: string&lt;/font&gt;&lt;/div&gt;&lt;div&gt;&lt;font style=&quot;font-size: 16px;&quot;&gt;- telephone: string&lt;/font&gt;&lt;/div&gt;" style="text;strokeColor=none;fillColor=none;align=left;verticalAlign=top;spacingLeft=4;spacingRight=4;overflow=hidden;rotatable=0;points=[[0,0.5],[1,0.5]];portConstraint=eastwest;whiteSpace=wrap;html=1;" parent="PzyJ5SBVM5l6bjQnl_92-1" vertex="1">
          <mxGeometry y="40" width="760" height="120" as="geometry" />
        </mxCell>
        <mxCell id="PzyJ5SBVM5l6bjQnl_92-3" value="" style="line;strokeWidth=1;fillColor=none;align=left;verticalAlign=middle;spacingTop=-1;spacingLeft=3;spacingRight=3;rotatable=0;labelPosition=right;points=[];portConstraint=eastwest;strokeColor=inherit;" parent="PzyJ5SBVM5l6bjQnl_92-1" vertex="1">
          <mxGeometry y="160" width="760" height="20" as="geometry" />
        </mxCell>
        <mxCell id="PzyJ5SBVM5l6bjQnl_92-4" value="&lt;span style=&quot;forced-color-adjust: none; color: rgb(0, 0, 0); font-style: normal; font-variant-ligatures: normal; font-variant-caps: normal; font-weight: 400; letter-spacing: normal; orphans: 2; text-indent: 0px; text-transform: none; widows: 2; word-spacing: 0px; -webkit-text-stroke-width: 0px; text-decoration-thickness: initial; text-decoration-style: initial; text-decoration-color: initial; font-family: &amp;quot;Noto Sans SC&amp;quot;; font-size: medium; text-align: start; white-space: pre; background-color: rgb(250, 250, 250); float: none; display: inline !important;&quot;&gt;+ GET /api/user-feedback: Task&amp;lt;ActionResult&amp;lt;IEnumerable&amp;lt;UserFeedback&amp;gt;&amp;gt;&amp;gt;&lt;/span&gt;&lt;div&gt;&lt;span style=&quot;forced-color-adjust: none; color: rgb(0, 0, 0); font-style: normal; font-variant-ligatures: normal; font-variant-caps: normal; font-weight: 400; letter-spacing: normal; orphans: 2; text-indent: 0px; text-transform: none; widows: 2; word-spacing: 0px; -webkit-text-stroke-width: 0px; text-decoration-thickness: initial; text-decoration-style: initial; text-decoration-color: initial; font-family: &amp;quot;Noto Sans SC&amp;quot;; font-size: medium; text-align: start; white-space: pre; background-color: rgb(250, 250, 250); float: none; display: inline !important;&quot;&gt;+ GET  /api/user-feedback/{id: int}: Task&amp;lt;ActionResult&amp;lt;UserFeedback&amp;gt;&amp;gt;&lt;/span&gt;&lt;/div&gt;&lt;div&gt;&lt;span style=&quot;forced-color-adjust: none; color: rgb(0, 0, 0); font-style: normal; font-variant-ligatures: normal; font-variant-caps: normal; font-weight: 400; letter-spacing: normal; orphans: 2; text-indent: 0px; text-transform: none; widows: 2; word-spacing: 0px; -webkit-text-stroke-width: 0px; text-decoration-thickness: initial; text-decoration-style: initial; text-decoration-color: initial; font-family: &amp;quot;Noto Sans SC&amp;quot;; font-size: medium; text-align: start; white-space: pre; background-color: rgb(250, 250, 250); float: none; display: inline !important;&quot;&gt;+ DELETE /api/user-feedback/{id: int}: Task&amp;lt;ActionResult&amp;lt;UserFeedback&amp;gt;&amp;gt;&lt;/span&gt;&lt;/div&gt;&lt;div&gt;&lt;span style=&quot;forced-color-adjust: none; color: rgb(0, 0, 0); font-style: normal; font-variant-ligatures: normal; font-variant-caps: normal; font-weight: 400; letter-spacing: normal; orphans: 2; text-indent: 0px; text-transform: none; widows: 2; word-spacing: 0px; -webkit-text-stroke-width: 0px; text-decoration-thickness: initial; text-decoration-style: initial; text-decoration-color: initial; font-family: &amp;quot;Noto Sans SC&amp;quot;; font-size: medium; text-align: start; white-space: pre; background-color: rgb(250, 250, 250); float: none; display: inline !important;&quot;&gt;+ POST /api/user-feedback {[FromBody] UserFeedback userFeedback}&lt;/span&gt;&lt;span style=&quot;background-color: rgb(250, 250, 250); font-family: &amp;quot;Noto Sans SC&amp;quot;; font-size: medium; white-space: pre;&quot;&gt;: &lt;/span&gt;&lt;span style=&quot;background-color: initial; white-space: pre;&quot;&gt;&lt;font size=&quot;3&quot; face=&quot;Noto Sans SC&quot;&gt;Task&amp;lt;IActionResult&amp;gt;&lt;/font&gt;&lt;/span&gt;&lt;/div&gt;&lt;div&gt;&lt;span style=&quot;background-color: initial; white-space: pre;&quot;&gt;&lt;font size=&quot;3&quot; face=&quot;Noto Sans SC&quot;&gt;+ PUT &lt;/font&gt;&lt;/span&gt;&lt;span style=&quot;background-color: rgb(250, 250, 250); font-family: &amp;quot;Noto Sans SC&amp;quot;; font-size: medium; white-space: pre;&quot;&gt;/api/user-feedback/{id: int}&lt;/span&gt;&lt;span style=&quot;background-color: rgb(250, 250, 250); font-family: &amp;quot;Noto Sans SC&amp;quot;; font-size: medium; white-space: pre;&quot;&gt; {[FromBody] UserFeedback userFeedback}&lt;/span&gt;&lt;span style=&quot;background-color: rgb(250, 250, 250); font-family: &amp;quot;Noto Sans SC&amp;quot;; font-size: medium; white-space: pre;&quot;&gt;: &lt;/span&gt;&lt;span style=&quot;background-color: initial; white-space: pre;&quot;&gt;&lt;font size=&quot;3&quot; face=&quot;Noto Sans SC&quot;&gt;Task&amp;lt;IActionResult&amp;gt;&lt;/font&gt;&lt;/span&gt;&lt;/div&gt;&lt;div&gt;&lt;br class=&quot;Apple-interchange-newline&quot;&gt;&lt;div&gt;&lt;br&gt;&lt;/div&gt;&lt;/div&gt;" style="text;strokeColor=none;fillColor=none;align=left;verticalAlign=top;spacingLeft=4;spacingRight=4;overflow=hidden;rotatable=0;points=[[0,0.5],[1,0.5]];portConstraint=eastwest;whiteSpace=wrap;html=1;" parent="PzyJ5SBVM5l6bjQnl_92-1" vertex="1">
          <mxGeometry y="180" width="760" height="120" as="geometry" />
        </mxCell>
        <mxCell id="PzyJ5SBVM5l6bjQnl_92-5" value="&lt;font style=&quot;font-size: 14px;&quot;&gt;0..*&lt;/font&gt;" style="html=1;verticalAlign=bottom;endArrow=block;curved=0;rounded=0;exitX=0.187;exitY=1.008;exitDx=0;exitDy=0;exitPerimeter=0;" parent="1" source="PzyJ5SBVM5l6bjQnl_92-4" edge="1">
          <mxGeometry width="80" relative="1" as="geometry">
            <mxPoint x="880" y="40" as="sourcePoint" />
            <mxPoint x="671" y="290" as="targetPoint" />
            <Array as="points">
              <mxPoint x="382" y="290" />
            </Array>
          </mxGeometry>
        </mxCell>
        <mxCell id="PzyJ5SBVM5l6bjQnl_92-6" value="&lt;font style=&quot;font-size: 18px;&quot;&gt;UserCheckin&lt;/font&gt;" style="swimlane;fontStyle=1;align=center;verticalAlign=top;childLayout=stackLayout;horizontal=1;startSize=40;horizontalStack=0;resizeParent=1;resizeParentMax=0;resizeLast=0;collapsible=1;marginBottom=0;whiteSpace=wrap;html=1;" parent="1" vertex="1">
          <mxGeometry x="-410" y="160" width="730" height="260" as="geometry" />
        </mxCell>
        <mxCell id="PzyJ5SBVM5l6bjQnl_92-7" value="&lt;font style=&quot;font-size: 16px;&quot;&gt;- checkInId: int&lt;/font&gt;&lt;div&gt;&lt;font style=&quot;font-size: 16px;&quot;&gt;- userId: int&lt;/font&gt;&lt;/div&gt;&lt;div&gt;&lt;font style=&quot;font-size: 16px;&quot;&gt;- checkInTime: date-time&lt;/font&gt;&lt;/div&gt;" style="text;strokeColor=none;fillColor=none;align=left;verticalAlign=top;spacingLeft=4;spacingRight=4;overflow=hidden;rotatable=0;points=[[0,0.5],[1,0.5]];portConstraint=eastwest;whiteSpace=wrap;html=1;" parent="PzyJ5SBVM5l6bjQnl_92-6" vertex="1">
          <mxGeometry y="40" width="730" height="60" as="geometry" />
        </mxCell>
        <mxCell id="PzyJ5SBVM5l6bjQnl_92-8" value="" style="line;strokeWidth=1;fillColor=none;align=left;verticalAlign=middle;spacingTop=-1;spacingLeft=3;spacingRight=3;rotatable=0;labelPosition=right;points=[];portConstraint=eastwest;strokeColor=inherit;" parent="PzyJ5SBVM5l6bjQnl_92-6" vertex="1">
          <mxGeometry y="100" width="730" height="20" as="geometry" />
        </mxCell>
        <mxCell id="PzyJ5SBVM5l6bjQnl_92-9" value="&lt;span style=&quot;forced-color-adjust: none; color: rgb(0, 0, 0); font-style: normal; font-variant-ligatures: normal; font-variant-caps: normal; font-weight: 400; letter-spacing: normal; orphans: 2; text-indent: 0px; text-transform: none; widows: 2; word-spacing: 0px; -webkit-text-stroke-width: 0px; text-decoration-thickness: initial; text-decoration-style: initial; text-decoration-color: initial; font-family: &amp;quot;Noto Sans SC&amp;quot;; font-size: medium; text-align: start; white-space: pre; background-color: rgb(250, 250, 250); float: none; display: inline !important;&quot;&gt;+ GET /api/user-check-in: Task&amp;lt;ActionResult&amp;lt;IEnumerable&amp;lt;UserCheckIn&amp;gt;&amp;gt;&amp;gt;&lt;/span&gt;&lt;div&gt;&lt;span style=&quot;forced-color-adjust: none; color: rgb(0, 0, 0); font-style: normal; font-variant-ligatures: normal; font-variant-caps: normal; font-weight: 400; letter-spacing: normal; orphans: 2; text-indent: 0px; text-transform: none; widows: 2; word-spacing: 0px; -webkit-text-stroke-width: 0px; text-decoration-thickness: initial; text-decoration-style: initial; text-decoration-color: initial; font-family: &amp;quot;Noto Sans SC&amp;quot;; font-size: medium; text-align: start; white-space: pre; background-color: rgb(250, 250, 250); float: none; display: inline !important;&quot;&gt;+ GET  /api/user-check-in/{id: int}: Task&amp;lt;ActionResult&amp;lt;UserCheckIn&amp;gt;&amp;gt;&lt;/span&gt;&lt;/div&gt;&lt;div&gt;&lt;span style=&quot;forced-color-adjust: none; color: rgb(0, 0, 0); font-style: normal; font-variant-ligatures: normal; font-variant-caps: normal; font-weight: 400; letter-spacing: normal; orphans: 2; text-indent: 0px; text-transform: none; widows: 2; word-spacing: 0px; -webkit-text-stroke-width: 0px; text-decoration-thickness: initial; text-decoration-style: initial; text-decoration-color: initial; font-family: &amp;quot;Noto Sans SC&amp;quot;; font-size: medium; text-align: start; white-space: pre; background-color: rgb(250, 250, 250); float: none; display: inline !important;&quot;&gt;+ DELETE /api/user-check-in/{id: int}: Task&amp;lt;ActionResult&amp;lt;UserCheckIn&amp;gt;&amp;gt;&lt;/span&gt;&lt;/div&gt;&lt;div&gt;&lt;span style=&quot;forced-color-adjust: none; color: rgb(0, 0, 0); font-style: normal; font-variant-ligatures: normal; font-variant-caps: normal; font-weight: 400; letter-spacing: normal; orphans: 2; text-indent: 0px; text-transform: none; widows: 2; word-spacing: 0px; -webkit-text-stroke-width: 0px; text-decoration-thickness: initial; text-decoration-style: initial; text-decoration-color: initial; font-family: &amp;quot;Noto Sans SC&amp;quot;; font-size: medium; text-align: start; white-space: pre; background-color: rgb(250, 250, 250); float: none; display: inline !important;&quot;&gt;+ POST /api/user-check-in {[FromBody] UserCheckIn userCheckIn}&lt;/span&gt;&lt;span style=&quot;background-color: rgb(250, 250, 250); font-family: &amp;quot;Noto Sans SC&amp;quot;; font-size: medium; white-space: pre;&quot;&gt;: &lt;/span&gt;&lt;span style=&quot;background-color: initial; white-space: pre;&quot;&gt;&lt;font size=&quot;3&quot; face=&quot;Noto Sans SC&quot;&gt;Task&amp;lt;IActionResult&amp;gt;&lt;/font&gt;&lt;/span&gt;&lt;/div&gt;&lt;div&gt;&lt;span style=&quot;background-color: initial; white-space: pre;&quot;&gt;&lt;font size=&quot;3&quot; face=&quot;Noto Sans SC&quot;&gt;+ PUT &lt;/font&gt;&lt;/span&gt;&lt;span style=&quot;font-family: &amp;quot;Noto Sans SC&amp;quot;; font-size: medium; white-space: pre; background-color: rgb(250, 250, 250);&quot;&gt;/api/user-check-in/{id: int}&lt;/span&gt;&lt;span style=&quot;background-color: rgb(250, 250, 250);&quot;&gt;&lt;font size=&quot;3&quot; face=&quot;Noto Sans SC&quot;&gt;&lt;span style=&quot;white-space: pre;&quot;&gt; {[FromBody] UserCheckIn userCheckIn}&lt;/span&gt;&lt;/font&gt;&lt;/span&gt;&lt;span style=&quot;background-color: rgb(250, 250, 250); font-family: &amp;quot;Noto Sans SC&amp;quot;; font-size: medium; white-space: pre;&quot;&gt;: &lt;/span&gt;&lt;span style=&quot;background-color: initial; white-space: pre;&quot;&gt;&lt;font size=&quot;3&quot; face=&quot;Noto Sans SC&quot;&gt;Task&amp;lt;IActionResult&amp;gt;&lt;/font&gt;&lt;/span&gt;&lt;/div&gt;&lt;div&gt;&lt;span style=&quot;background-color: initial; white-space: pre;&quot;&gt;&lt;font size=&quot;3&quot; face=&quot;Noto Sans SC&quot;&gt;+ GET &lt;/font&gt;&lt;/span&gt;&lt;span style=&quot;background-color: rgb(250, 250, 250); font-family: &amp;quot;Noto Sans SC&amp;quot;; font-size: medium; white-space: pre;&quot;&gt;/api/user-check-in/check-by-date/{userId: int}-{date: date-time}: &lt;/span&gt;&lt;span style=&quot;background-color: initial; white-space: pre;&quot;&gt;&lt;font size=&quot;3&quot; face=&quot;Noto Sans SC&quot;&gt;Task&amp;lt;ActionResult&amp;lt;int&amp;gt;&amp;gt;&lt;/font&gt;&lt;/span&gt;&lt;/div&gt;" style="text;strokeColor=none;fillColor=none;align=left;verticalAlign=top;spacingLeft=4;spacingRight=4;overflow=hidden;rotatable=0;points=[[0,0.5],[1,0.5]];portConstraint=eastwest;whiteSpace=wrap;html=1;" parent="PzyJ5SBVM5l6bjQnl_92-6" vertex="1">
          <mxGeometry y="120" width="730" height="140" as="geometry" />
        </mxCell>
        <mxCell id="PzyJ5SBVM5l6bjQnl_92-13" value="&lt;font style=&quot;font-size: 14px;&quot;&gt;0..*&lt;/font&gt;" style="html=1;verticalAlign=bottom;endArrow=block;curved=0;rounded=0;entryX=0;entryY=0.394;entryDx=0;entryDy=0;entryPerimeter=0;" parent="1" target="88wGjKEd4IUI13QPvUiT-2" edge="1">
          <mxGeometry width="80" relative="1" as="geometry">
            <mxPoint x="320" y="364" as="sourcePoint" />
            <mxPoint x="719" y="609" as="targetPoint" />
            <Array as="points" />
          </mxGeometry>
        </mxCell>
        <mxCell id="PzyJ5SBVM5l6bjQnl_92-14" value="&lt;font style=&quot;font-size: 18px;&quot;&gt;UserFollow&lt;/font&gt;" style="swimlane;fontStyle=1;align=center;verticalAlign=top;childLayout=stackLayout;horizontal=1;startSize=40;horizontalStack=0;resizeParent=1;resizeParentMax=0;resizeLast=0;collapsible=1;marginBottom=0;whiteSpace=wrap;html=1;" parent="1" vertex="1">
          <mxGeometry x="-520" y="500" width="840" height="240" as="geometry" />
        </mxCell>
        <mxCell id="PzyJ5SBVM5l6bjQnl_92-15" value="&lt;font style=&quot;font-size: 16px;&quot;&gt;- userId: int&lt;/font&gt;&lt;div&gt;&lt;font style=&quot;font-size: 16px;&quot;&gt;- followerId: int&lt;/font&gt;&lt;/div&gt;&lt;div&gt;&lt;font style=&quot;font-size: 16px;&quot;&gt;- followTime: date-time&lt;/font&gt;&lt;/div&gt;" style="text;strokeColor=none;fillColor=none;align=left;verticalAlign=top;spacingLeft=4;spacingRight=4;overflow=hidden;rotatable=0;points=[[0,0.5],[1,0.5]];portConstraint=eastwest;whiteSpace=wrap;html=1;" parent="PzyJ5SBVM5l6bjQnl_92-14" vertex="1">
          <mxGeometry y="40" width="840" height="60" as="geometry" />
        </mxCell>
        <mxCell id="PzyJ5SBVM5l6bjQnl_92-16" value="" style="line;strokeWidth=1;fillColor=none;align=left;verticalAlign=middle;spacingTop=-1;spacingLeft=3;spacingRight=3;rotatable=0;labelPosition=right;points=[];portConstraint=eastwest;strokeColor=inherit;" parent="PzyJ5SBVM5l6bjQnl_92-14" vertex="1">
          <mxGeometry y="100" width="840" height="20" as="geometry" />
        </mxCell>
        <mxCell id="PzyJ5SBVM5l6bjQnl_92-17" value="&lt;span style=&quot;forced-color-adjust: none; color: rgb(0, 0, 0); font-style: normal; font-variant-ligatures: normal; font-variant-caps: normal; font-weight: 400; letter-spacing: normal; orphans: 2; text-indent: 0px; text-transform: none; widows: 2; word-spacing: 0px; -webkit-text-stroke-width: 0px; text-decoration-thickness: initial; text-decoration-style: initial; text-decoration-color: initial; font-family: &amp;quot;Noto Sans SC&amp;quot;; font-size: medium; text-align: start; white-space: pre; background-color: rgb(250, 250, 250); float: none; display: inline !important;&quot;&gt;+ GET /api/user-follow: Task&amp;lt;ActionResult&amp;lt;IEnumerable&amp;lt;UserFollow&amp;gt;&amp;gt;&amp;gt;&lt;/span&gt;&lt;div&gt;&lt;span style=&quot;forced-color-adjust: none; color: rgb(0, 0, 0); font-style: normal; font-variant-ligatures: normal; font-variant-caps: normal; font-weight: 400; letter-spacing: normal; orphans: 2; text-indent: 0px; text-transform: none; widows: 2; word-spacing: 0px; -webkit-text-stroke-width: 0px; text-decoration-thickness: initial; text-decoration-style: initial; text-decoration-color: initial; font-family: &amp;quot;Noto Sans SC&amp;quot;; font-size: medium; text-align: start; white-space: pre; background-color: rgb(250, 250, 250); float: none; display: inline !important;&quot;&gt;+ GET  /api/user-follow/{userId}-{followerId: int}: Task&amp;lt;ActionResult&amp;lt;UserFollow&amp;gt;&amp;gt;&lt;/span&gt;&lt;/div&gt;&lt;div&gt;&lt;span style=&quot;forced-color-adjust: none; color: rgb(0, 0, 0); font-style: normal; font-variant-ligatures: normal; font-variant-caps: normal; font-weight: 400; letter-spacing: normal; orphans: 2; text-indent: 0px; text-transform: none; widows: 2; word-spacing: 0px; -webkit-text-stroke-width: 0px; text-decoration-thickness: initial; text-decoration-style: initial; text-decoration-color: initial; font-family: &amp;quot;Noto Sans SC&amp;quot;; font-size: medium; text-align: start; white-space: pre; background-color: rgb(250, 250, 250); float: none; display: inline !important;&quot;&gt;+ DELETE /api/user-follow/{userId: int}-{followerId: int}: Task&amp;lt;ActionResult&amp;lt;UserFollow&amp;gt;&amp;gt;&lt;/span&gt;&lt;/div&gt;&lt;div&gt;&lt;span style=&quot;forced-color-adjust: none; color: rgb(0, 0, 0); font-style: normal; font-variant-ligatures: normal; font-variant-caps: normal; font-weight: 400; letter-spacing: normal; orphans: 2; text-indent: 0px; text-transform: none; widows: 2; word-spacing: 0px; -webkit-text-stroke-width: 0px; text-decoration-thickness: initial; text-decoration-style: initial; text-decoration-color: initial; font-family: &amp;quot;Noto Sans SC&amp;quot;; font-size: medium; text-align: start; white-space: pre; background-color: rgb(250, 250, 250); float: none; display: inline !important;&quot;&gt;+ POST /api/user-follow {[FromBody] UserFollow userFollow}&lt;/span&gt;&lt;span style=&quot;background-color: rgb(250, 250, 250); font-family: &amp;quot;Noto Sans SC&amp;quot;; font-size: medium; white-space: pre;&quot;&gt;: &lt;/span&gt;&lt;span style=&quot;background-color: initial; white-space: pre;&quot;&gt;&lt;font size=&quot;3&quot; face=&quot;Noto Sans SC&quot;&gt;Task&amp;lt;IActionResult&amp;gt;&lt;/font&gt;&lt;/span&gt;&lt;/div&gt;&lt;div&gt;&lt;span style=&quot;background-color: initial; white-space: pre;&quot;&gt;&lt;font size=&quot;3&quot; face=&quot;Noto Sans SC&quot;&gt;+ PUT &lt;/font&gt;&lt;/span&gt;&lt;span style=&quot;font-family: &amp;quot;Noto Sans SC&amp;quot;; font-size: medium; white-space: pre; background-color: rgb(250, 250, 250);&quot;&gt;/api/user-follow/{userId: int}-{followerId: int}&lt;/span&gt;&lt;span style=&quot;background-color: rgb(250, 250, 250);&quot;&gt;&lt;font size=&quot;3&quot; face=&quot;Noto Sans SC&quot;&gt;&lt;span style=&quot;white-space: pre;&quot;&gt; {[FromBody] UserFollow userFollow}&lt;/span&gt;&lt;/font&gt;&lt;/span&gt;&lt;span style=&quot;background-color: rgb(250, 250, 250); font-family: &amp;quot;Noto Sans SC&amp;quot;; font-size: medium; white-space: pre;&quot;&gt;: &lt;/span&gt;&lt;span style=&quot;background-color: initial; white-space: pre;&quot;&gt;&lt;font size=&quot;3&quot; face=&quot;Noto Sans SC&quot;&gt;Task&amp;lt;IActionResult&amp;gt;&lt;/font&gt;&lt;/span&gt;&lt;/div&gt;" style="text;strokeColor=none;fillColor=none;align=left;verticalAlign=top;spacingLeft=4;spacingRight=4;overflow=hidden;rotatable=0;points=[[0,0.5],[1,0.5]];portConstraint=eastwest;whiteSpace=wrap;html=1;" parent="PzyJ5SBVM5l6bjQnl_92-14" vertex="1">
          <mxGeometry y="120" width="840" height="120" as="geometry" />
        </mxCell>
        <mxCell id="PzyJ5SBVM5l6bjQnl_92-18" value="&lt;font style=&quot;font-size: 14px;&quot;&gt;0..*&lt;/font&gt;" style="html=1;verticalAlign=bottom;endArrow=block;curved=0;rounded=0;entryX=0;entryY=0.394;entryDx=0;entryDy=0;entryPerimeter=0;" parent="1" edge="1">
          <mxGeometry width="80" relative="1" as="geometry">
            <mxPoint x="320" y="630" as="sourcePoint" />
            <mxPoint x="670" y="630" as="targetPoint" />
            <Array as="points" />
          </mxGeometry>
        </mxCell>
        <mxCell id="PzyJ5SBVM5l6bjQnl_92-19" value="&lt;font style=&quot;font-size: 18px;&quot;&gt;UserMessage&lt;/font&gt;" style="swimlane;fontStyle=1;align=center;verticalAlign=top;childLayout=stackLayout;horizontal=1;startSize=40;horizontalStack=0;resizeParent=1;resizeParentMax=0;resizeLast=0;collapsible=1;marginBottom=0;whiteSpace=wrap;html=1;" parent="1" vertex="1">
          <mxGeometry x="-410" y="800" width="730" height="280" as="geometry" />
        </mxCell>
        <mxCell id="PzyJ5SBVM5l6bjQnl_92-20" value="&lt;font style=&quot;font-size: 16px;&quot;&gt;- messageId: int&lt;/font&gt;&lt;div&gt;&lt;font style=&quot;font-size: 16px;&quot;&gt;- userId: int&lt;/font&gt;&lt;/div&gt;&lt;div&gt;&lt;font style=&quot;font-size: 16px;&quot;&gt;- commenterId: int&lt;/font&gt;&lt;/div&gt;&lt;div&gt;&lt;font style=&quot;font-size: 16px;&quot;&gt;- message: string&lt;/font&gt;&lt;/div&gt;&lt;div&gt;&lt;font style=&quot;font-size: 16px;&quot;&gt;- commentTime: date-time&lt;/font&gt;&lt;/div&gt;" style="text;strokeColor=none;fillColor=none;align=left;verticalAlign=top;spacingLeft=4;spacingRight=4;overflow=hidden;rotatable=0;points=[[0,0.5],[1,0.5]];portConstraint=eastwest;whiteSpace=wrap;html=1;" parent="PzyJ5SBVM5l6bjQnl_92-19" vertex="1">
          <mxGeometry y="40" width="730" height="100" as="geometry" />
        </mxCell>
        <mxCell id="PzyJ5SBVM5l6bjQnl_92-21" value="" style="line;strokeWidth=1;fillColor=none;align=left;verticalAlign=middle;spacingTop=-1;spacingLeft=3;spacingRight=3;rotatable=0;labelPosition=right;points=[];portConstraint=eastwest;strokeColor=inherit;" parent="PzyJ5SBVM5l6bjQnl_92-19" vertex="1">
          <mxGeometry y="140" width="730" height="20" as="geometry" />
        </mxCell>
        <mxCell id="PzyJ5SBVM5l6bjQnl_92-22" value="&lt;span style=&quot;forced-color-adjust: none; color: rgb(0, 0, 0); font-style: normal; font-variant-ligatures: normal; font-variant-caps: normal; font-weight: 400; letter-spacing: normal; orphans: 2; text-indent: 0px; text-transform: none; widows: 2; word-spacing: 0px; -webkit-text-stroke-width: 0px; text-decoration-thickness: initial; text-decoration-style: initial; text-decoration-color: initial; font-family: &amp;quot;Noto Sans SC&amp;quot;; font-size: medium; text-align: start; white-space: pre; background-color: rgb(250, 250, 250); float: none; display: inline !important;&quot;&gt;+ GET /api/user-message: Task&amp;lt;ActionResult&amp;lt;IEnumerable&amp;lt;UserMessage&amp;gt;&amp;gt;&amp;gt;&lt;/span&gt;&lt;div&gt;&lt;span style=&quot;forced-color-adjust: none; color: rgb(0, 0, 0); font-style: normal; font-variant-ligatures: normal; font-variant-caps: normal; font-weight: 400; letter-spacing: normal; orphans: 2; text-indent: 0px; text-transform: none; widows: 2; word-spacing: 0px; -webkit-text-stroke-width: 0px; text-decoration-thickness: initial; text-decoration-style: initial; text-decoration-color: initial; font-family: &amp;quot;Noto Sans SC&amp;quot;; font-size: medium; text-align: start; white-space: pre; background-color: rgb(250, 250, 250); float: none; display: inline !important;&quot;&gt;+ GET  /api/user-message/{id: int}: Task&amp;lt;ActionResult&amp;lt;UserMessage&amp;gt;&amp;gt;&lt;/span&gt;&lt;/div&gt;&lt;div&gt;&lt;span style=&quot;forced-color-adjust: none; color: rgb(0, 0, 0); font-style: normal; font-variant-ligatures: normal; font-variant-caps: normal; font-weight: 400; letter-spacing: normal; orphans: 2; text-indent: 0px; text-transform: none; widows: 2; word-spacing: 0px; -webkit-text-stroke-width: 0px; text-decoration-thickness: initial; text-decoration-style: initial; text-decoration-color: initial; font-family: &amp;quot;Noto Sans SC&amp;quot;; font-size: medium; text-align: start; white-space: pre; background-color: rgb(250, 250, 250); float: none; display: inline !important;&quot;&gt;+ DELETE /api/user-message/{id: int}: Task&amp;lt;ActionResult&amp;lt;UserMessage&amp;gt;&amp;gt;&lt;/span&gt;&lt;/div&gt;&lt;div&gt;&lt;span style=&quot;forced-color-adjust: none; color: rgb(0, 0, 0); font-style: normal; font-variant-ligatures: normal; font-variant-caps: normal; font-weight: 400; letter-spacing: normal; orphans: 2; text-indent: 0px; text-transform: none; widows: 2; word-spacing: 0px; -webkit-text-stroke-width: 0px; text-decoration-thickness: initial; text-decoration-style: initial; text-decoration-color: initial; font-family: &amp;quot;Noto Sans SC&amp;quot;; font-size: medium; text-align: start; white-space: pre; background-color: rgb(250, 250, 250); float: none; display: inline !important;&quot;&gt;+ POST /api/user-message {[FromBody] UserMessage userMessage}&lt;/span&gt;&lt;span style=&quot;background-color: rgb(250, 250, 250); font-family: &amp;quot;Noto Sans SC&amp;quot;; font-size: medium; white-space: pre;&quot;&gt;: &lt;/span&gt;&lt;span style=&quot;background-color: initial; white-space: pre;&quot;&gt;&lt;font size=&quot;3&quot; face=&quot;Noto Sans SC&quot;&gt;Task&amp;lt;IActionResult&amp;gt;&lt;/font&gt;&lt;/span&gt;&lt;/div&gt;&lt;div&gt;&lt;span style=&quot;background-color: initial; white-space: pre;&quot;&gt;&lt;font size=&quot;3&quot; face=&quot;Noto Sans SC&quot;&gt;+ PUT &lt;/font&gt;&lt;/span&gt;&lt;span style=&quot;font-family: &amp;quot;Noto Sans SC&amp;quot;; font-size: medium; white-space: pre; background-color: rgb(250, 250, 250);&quot;&gt;/api/user-message/{id: int}&lt;/span&gt;&lt;span style=&quot;background-color: rgb(250, 250, 250);&quot;&gt;&lt;font size=&quot;3&quot; face=&quot;Noto Sans SC&quot;&gt;&lt;span style=&quot;white-space: pre;&quot;&gt; {[FromBody] UserMessage userMessage}&lt;/span&gt;&lt;/font&gt;&lt;/span&gt;&lt;span style=&quot;background-color: rgb(250, 250, 250); font-family: &amp;quot;Noto Sans SC&amp;quot;; font-size: medium; white-space: pre;&quot;&gt;: &lt;/span&gt;&lt;span style=&quot;background-color: initial; white-space: pre;&quot;&gt;&lt;font size=&quot;3&quot; face=&quot;Noto Sans SC&quot;&gt;Task&amp;lt;IActionResult&amp;gt;&lt;/font&gt;&lt;/span&gt;&lt;/div&gt;" style="text;strokeColor=none;fillColor=none;align=left;verticalAlign=top;spacingLeft=4;spacingRight=4;overflow=hidden;rotatable=0;points=[[0,0.5],[1,0.5]];portConstraint=eastwest;whiteSpace=wrap;html=1;" parent="PzyJ5SBVM5l6bjQnl_92-19" vertex="1">
          <mxGeometry y="160" width="730" height="120" as="geometry" />
        </mxCell>
        <mxCell id="PzyJ5SBVM5l6bjQnl_92-23" value="&lt;font style=&quot;font-size: 14px;&quot;&gt;0..*&lt;/font&gt;" style="html=1;verticalAlign=bottom;endArrow=block;curved=0;rounded=0;entryX=0;entryY=0.394;entryDx=0;entryDy=0;entryPerimeter=0;" parent="1" edge="1">
          <mxGeometry width="80" relative="1" as="geometry">
            <mxPoint x="320" y="860" as="sourcePoint" />
            <mxPoint x="670" y="860" as="targetPoint" />
            <Array as="points" />
          </mxGeometry>
        </mxCell>
        <mxCell id="PzyJ5SBVM5l6bjQnl_92-24" value="&lt;font style=&quot;font-size: 18px;&quot;&gt;UserMessage&lt;/font&gt;" style="swimlane;fontStyle=1;align=center;verticalAlign=top;childLayout=stackLayout;horizontal=1;startSize=40;horizontalStack=0;resizeParent=1;resizeParentMax=0;resizeLast=0;collapsible=1;marginBottom=0;whiteSpace=wrap;html=1;" parent="1" vertex="1">
          <mxGeometry x="240" y="1169" width="730" height="510" as="geometry" />
        </mxCell>
        <mxCell id="PzyJ5SBVM5l6bjQnl_92-25" value="&lt;font style=&quot;font-size: 16px;&quot;&gt;- userId: int&lt;/font&gt;&lt;div&gt;&lt;font style=&quot;font-size: 16px;&quot;&gt;- isTelephonePublic: int&lt;br&gt;&lt;/font&gt;&lt;/div&gt;&lt;div&gt;&lt;font style=&quot;font-size: 16px;&quot;&gt;-&amp;nbsp;isRegistrationDatePublic: int&lt;/font&gt;&lt;/div&gt;&lt;div&gt;&lt;font style=&quot;font-size: 16px;&quot;&gt;-&amp;nbsp;isProfilePublic: int&lt;/font&gt;&lt;/div&gt;&lt;div&gt;&lt;font style=&quot;font-size: 16px;&quot;&gt;-&amp;nbsp;isGenderPublic: int&lt;/font&gt;&lt;/div&gt;&lt;div&gt;&lt;font style=&quot;font-size: 16px;&quot;&gt;-&amp;nbsp;isBirthdatePublic: int&lt;/font&gt;&lt;/div&gt;&lt;div&gt;&lt;font style=&quot;font-size: 16px;&quot;&gt;-&amp;nbsp;isLevelPublic: int&lt;/font&gt;&lt;/div&gt;&lt;div&gt;&lt;font style=&quot;font-size: 16px;&quot;&gt;-&amp;nbsp;isFollowingCountPublic: int&lt;/font&gt;&lt;/div&gt;&lt;div&gt;&lt;font style=&quot;font-size: 16px;&quot;&gt;-&amp;nbsp;isFollowersCountPublic: int&lt;/font&gt;&lt;/div&gt;&lt;div&gt;&lt;font style=&quot;font-size: 16px;&quot;&gt;-&amp;nbsp;isFavoritesCountPublic: int&lt;/font&gt;&lt;/div&gt;&lt;div&gt;&lt;font style=&quot;font-size: 16px;&quot;&gt;-&amp;nbsp;isFavoredCountPublic: int&lt;/font&gt;&lt;/div&gt;&lt;div&gt;&lt;font style=&quot;font-size: 16px;&quot;&gt;-&amp;nbsp;isLikesCountPublic: int&lt;/font&gt;&lt;/div&gt;&lt;div&gt;&lt;font style=&quot;font-size: 16px;&quot;&gt;-&amp;nbsp;isLikedCountPublic: int&lt;/font&gt;&lt;/div&gt;&lt;div&gt;&lt;font style=&quot;font-size: 16px;&quot;&gt;-&amp;nbsp;isMessageCountPublic: int&lt;/font&gt;&lt;/div&gt;&lt;div&gt;&lt;font style=&quot;font-size: 16px;&quot;&gt;-&amp;nbsp;allowFollowing: int&lt;/font&gt;&lt;/div&gt;&lt;div&gt;&lt;span style=&quot;font-size: 16px;&quot;&gt;-&amp;nbsp;&lt;/span&gt;&lt;span style=&quot;background-color: initial; font-size: 16px;&quot;&gt;receiveAdminNotifications: int&lt;/span&gt;&lt;/div&gt;&lt;div&gt;&lt;font style=&quot;font-size: 16px;&quot;&gt;-&amp;nbsp;receiveUserNotifications: int&lt;/font&gt;&lt;/div&gt;" style="text;strokeColor=none;fillColor=none;align=left;verticalAlign=top;spacingLeft=4;spacingRight=4;overflow=hidden;rotatable=0;points=[[0,0.5],[1,0.5]];portConstraint=eastwest;whiteSpace=wrap;html=1;" parent="PzyJ5SBVM5l6bjQnl_92-24" vertex="1">
          <mxGeometry y="40" width="730" height="330" as="geometry" />
        </mxCell>
        <mxCell id="PzyJ5SBVM5l6bjQnl_92-26" value="" style="line;strokeWidth=1;fillColor=none;align=left;verticalAlign=middle;spacingTop=-1;spacingLeft=3;spacingRight=3;rotatable=0;labelPosition=right;points=[];portConstraint=eastwest;strokeColor=inherit;" parent="PzyJ5SBVM5l6bjQnl_92-24" vertex="1">
          <mxGeometry y="370" width="730" height="20" as="geometry" />
        </mxCell>
        <mxCell id="PzyJ5SBVM5l6bjQnl_92-27" value="&lt;span style=&quot;forced-color-adjust: none; color: rgb(0, 0, 0); font-style: normal; font-variant-ligatures: normal; font-variant-caps: normal; font-weight: 400; letter-spacing: normal; orphans: 2; text-indent: 0px; text-transform: none; widows: 2; word-spacing: 0px; -webkit-text-stroke-width: 0px; text-decoration-thickness: initial; text-decoration-style: initial; text-decoration-color: initial; font-family: &amp;quot;Noto Sans SC&amp;quot;; font-size: medium; text-align: start; white-space: pre; background-color: rgb(250, 250, 250); float: none; display: inline !important;&quot;&gt;+ GET /api/user-setting: Task&amp;lt;ActionResult&amp;lt;IEnumerable&amp;lt;UserSetting&amp;gt;&amp;gt;&amp;gt;&lt;/span&gt;&lt;div&gt;&lt;span style=&quot;forced-color-adjust: none; color: rgb(0, 0, 0); font-style: normal; font-variant-ligatures: normal; font-variant-caps: normal; font-weight: 400; letter-spacing: normal; orphans: 2; text-indent: 0px; text-transform: none; widows: 2; word-spacing: 0px; -webkit-text-stroke-width: 0px; text-decoration-thickness: initial; text-decoration-style: initial; text-decoration-color: initial; font-family: &amp;quot;Noto Sans SC&amp;quot;; font-size: medium; text-align: start; white-space: pre; background-color: rgb(250, 250, 250); float: none; display: inline !important;&quot;&gt;+ GET  /api/user-setting/{id: int}: Task&amp;lt;ActionResult&amp;lt;UserSetting&amp;gt;&amp;gt;&lt;/span&gt;&lt;/div&gt;&lt;div&gt;&lt;span style=&quot;forced-color-adjust: none; color: rgb(0, 0, 0); font-style: normal; font-variant-ligatures: normal; font-variant-caps: normal; font-weight: 400; letter-spacing: normal; orphans: 2; text-indent: 0px; text-transform: none; widows: 2; word-spacing: 0px; -webkit-text-stroke-width: 0px; text-decoration-thickness: initial; text-decoration-style: initial; text-decoration-color: initial; font-family: &amp;quot;Noto Sans SC&amp;quot;; font-size: medium; text-align: start; white-space: pre; background-color: rgb(250, 250, 250); float: none; display: inline !important;&quot;&gt;+ DELETE /api/user-setting/{id: int}: Task&amp;lt;ActionResult&amp;lt;UserSetting&amp;gt;&amp;gt;&lt;/span&gt;&lt;/div&gt;&lt;div&gt;&lt;span style=&quot;forced-color-adjust: none; color: rgb(0, 0, 0); font-style: normal; font-variant-ligatures: normal; font-variant-caps: normal; font-weight: 400; letter-spacing: normal; orphans: 2; text-indent: 0px; text-transform: none; widows: 2; word-spacing: 0px; -webkit-text-stroke-width: 0px; text-decoration-thickness: initial; text-decoration-style: initial; text-decoration-color: initial; font-family: &amp;quot;Noto Sans SC&amp;quot;; font-size: medium; text-align: start; white-space: pre; background-color: rgb(250, 250, 250); float: none; display: inline !important;&quot;&gt;+ POST /api/user-setting {[FromBody] UserSetting userSetting}&lt;/span&gt;&lt;span style=&quot;background-color: rgb(250, 250, 250); font-family: &amp;quot;Noto Sans SC&amp;quot;; font-size: medium; white-space: pre;&quot;&gt;: &lt;/span&gt;&lt;span style=&quot;background-color: initial; white-space: pre;&quot;&gt;&lt;font size=&quot;3&quot; face=&quot;Noto Sans SC&quot;&gt;Task&amp;lt;IActionResult&amp;gt;&lt;/font&gt;&lt;/span&gt;&lt;/div&gt;&lt;div&gt;&lt;span style=&quot;background-color: initial; white-space: pre;&quot;&gt;&lt;font size=&quot;3&quot; face=&quot;Noto Sans SC&quot;&gt;+ PUT &lt;/font&gt;&lt;/span&gt;&lt;span style=&quot;font-family: &amp;quot;Noto Sans SC&amp;quot;; font-size: medium; white-space: pre; background-color: rgb(250, 250, 250);&quot;&gt;/api/user-setting/&lt;/span&gt;&lt;span style=&quot;font-family: &amp;quot;Noto Sans SC&amp;quot;; font-size: medium; white-space: pre; background-color: rgb(250, 250, 250);&quot;&gt;{id: int}&lt;/span&gt;&lt;span style=&quot;background-color: rgb(250, 250, 250);&quot;&gt;&lt;font size=&quot;3&quot; face=&quot;Noto Sans SC&quot;&gt;&lt;span style=&quot;white-space: pre;&quot;&gt; {[FromBody] UserSetting userSetting}&lt;/span&gt;&lt;/font&gt;&lt;/span&gt;&lt;span style=&quot;background-color: rgb(250, 250, 250); font-family: &amp;quot;Noto Sans SC&amp;quot;; font-size: medium; white-space: pre;&quot;&gt;: &lt;/span&gt;&lt;span style=&quot;background-color: initial; white-space: pre;&quot;&gt;&lt;font size=&quot;3&quot; face=&quot;Noto Sans SC&quot;&gt;Task&amp;lt;IActionResult&amp;gt;&lt;/font&gt;&lt;/span&gt;&lt;/div&gt;" style="text;strokeColor=none;fillColor=none;align=left;verticalAlign=top;spacingLeft=4;spacingRight=4;overflow=hidden;rotatable=0;points=[[0,0.5],[1,0.5]];portConstraint=eastwest;whiteSpace=wrap;html=1;" parent="PzyJ5SBVM5l6bjQnl_92-24" vertex="1">
          <mxGeometry y="390" width="730" height="120" as="geometry" />
        </mxCell>
        <mxCell id="PzyJ5SBVM5l6bjQnl_92-28" value="&lt;font style=&quot;font-size: 14px;&quot;&gt;1..*&lt;/font&gt;" style="html=1;verticalAlign=bottom;endArrow=block;curved=0;rounded=0;" parent="1" edge="1">
          <mxGeometry x="0.0255" y="-31" width="80" relative="1" as="geometry">
            <mxPoint x="400" y="1160" as="sourcePoint" />
            <mxPoint x="679" y="969" as="targetPoint" />
            <Array as="points">
              <mxPoint x="400" y="969" />
            </Array>
            <mxPoint as="offset" />
          </mxGeometry>
        </mxCell>
        <mxCell id="PzyJ5SBVM5l6bjQnl_92-37" value="&lt;h2&gt;NewsEntity&lt;/h2&gt;" style="swimlane;fontStyle=0;childLayout=stackLayout;horizontal=1;startSize=30;fillColor=none;horizontalStack=0;resizeParent=1;resizeParentMax=0;resizeLast=0;collapsible=1;marginBottom=0;whiteSpace=wrap;html=1;" parent="1" vertex="1">
          <mxGeometry x="1420" y="-40" width="140" height="56" as="geometry" />
        </mxCell>
        <mxCell id="PzyJ5SBVM5l6bjQnl_92-38" value="&lt;font style=&quot;font-size: 16px;&quot;&gt;- userId: int&lt;/font&gt;" style="text;strokeColor=none;fillColor=none;align=left;verticalAlign=top;spacingLeft=4;spacingRight=4;overflow=hidden;rotatable=0;points=[[0,0.5],[1,0.5]];portConstraint=eastwest;whiteSpace=wrap;html=1;" parent="PzyJ5SBVM5l6bjQnl_92-37" vertex="1">
          <mxGeometry y="30" width="140" height="26" as="geometry" />
        </mxCell>
        <mxCell id="PzyJ5SBVM5l6bjQnl_92-41" value="&lt;font style=&quot;font-size: 14px;&quot;&gt;0..*&lt;/font&gt;" style="html=1;verticalAlign=bottom;endArrow=block;curved=0;rounded=0;" parent="1" source="PzyJ5SBVM5l6bjQnl_92-38" edge="1">
          <mxGeometry width="80" relative="1" as="geometry">
            <mxPoint x="1310" y="14" as="sourcePoint" />
            <mxPoint x="1490" y="170" as="targetPoint" />
            <Array as="points" />
          </mxGeometry>
        </mxCell>
        <mxCell id="PzyJ5SBVM5l6bjQnl_92-42" value="&lt;h2&gt;NewsCommetEntity&lt;/h2&gt;" style="swimlane;fontStyle=0;childLayout=stackLayout;horizontal=1;startSize=30;fillColor=none;horizontalStack=0;resizeParent=1;resizeParentMax=0;resizeLast=0;collapsible=1;marginBottom=0;whiteSpace=wrap;html=1;" parent="1" vertex="1">
          <mxGeometry x="1870" y="-10" width="190" height="56" as="geometry" />
        </mxCell>
        <mxCell id="PzyJ5SBVM5l6bjQnl_92-43" value="&lt;font style=&quot;font-size: 16px;&quot;&gt;- userId: int&lt;/font&gt;" style="text;strokeColor=none;fillColor=none;align=left;verticalAlign=top;spacingLeft=4;spacingRight=4;overflow=hidden;rotatable=0;points=[[0,0.5],[1,0.5]];portConstraint=eastwest;whiteSpace=wrap;html=1;" parent="PzyJ5SBVM5l6bjQnl_92-42" vertex="1">
          <mxGeometry y="30" width="190" height="26" as="geometry" />
        </mxCell>
        <mxCell id="PzyJ5SBVM5l6bjQnl_92-44" value="&lt;font style=&quot;font-size: 14px;&quot;&gt;0..*&lt;/font&gt;" style="html=1;verticalAlign=bottom;endArrow=block;curved=0;rounded=0;" parent="1" edge="1">
          <mxGeometry x="-0.0233" width="80" relative="1" as="geometry">
            <mxPoint x="1870" y="40" as="sourcePoint" />
            <mxPoint x="1570" y="170" as="targetPoint" />
            <Array as="points">
              <mxPoint x="1570" y="40" />
            </Array>
            <mxPoint as="offset" />
          </mxGeometry>
        </mxCell>
        <mxCell id="PzyJ5SBVM5l6bjQnl_92-45" value="&lt;font style=&quot;font-size: 14px;&quot;&gt;0..*&lt;/font&gt;" style="html=1;verticalAlign=bottom;endArrow=block;curved=0;rounded=0;exitX=0;exitY=0.25;exitDx=0;exitDy=0;entryX=1;entryY=0.5;entryDx=0;entryDy=0;" parent="1" source="PzyJ5SBVM5l6bjQnl_92-42" target="PzyJ5SBVM5l6bjQnl_92-38" edge="1">
          <mxGeometry width="80" relative="1" as="geometry">
            <mxPoint x="1650" as="sourcePoint" />
            <mxPoint x="1380" y="30" as="targetPoint" />
            <Array as="points" />
          </mxGeometry>
        </mxCell>
        <mxCell id="PzyJ5SBVM5l6bjQnl_92-47" value="&lt;h2&gt;NewsDislikeEntity&lt;/h2&gt;" style="swimlane;fontStyle=0;childLayout=stackLayout;horizontal=1;startSize=30;fillColor=none;horizontalStack=0;resizeParent=1;resizeParentMax=0;resizeLast=0;collapsible=1;marginBottom=0;whiteSpace=wrap;html=1;" parent="1" vertex="1">
          <mxGeometry x="950" y="-340" width="180" height="56" as="geometry" />
        </mxCell>
        <mxCell id="PzyJ5SBVM5l6bjQnl_92-48" value="&lt;font style=&quot;font-size: 16px;&quot;&gt;- userId: int&lt;/font&gt;" style="text;strokeColor=none;fillColor=none;align=left;verticalAlign=top;spacingLeft=4;spacingRight=4;overflow=hidden;rotatable=0;points=[[0,0.5],[1,0.5]];portConstraint=eastwest;whiteSpace=wrap;html=1;" parent="PzyJ5SBVM5l6bjQnl_92-47" vertex="1">
          <mxGeometry y="30" width="180" height="26" as="geometry" />
        </mxCell>
        <mxCell id="PzyJ5SBVM5l6bjQnl_92-49" value="&lt;font style=&quot;font-size: 14px;&quot;&gt;0..*&lt;/font&gt;" style="html=1;verticalAlign=bottom;endArrow=block;curved=0;rounded=0;entryX=0.354;entryY=-0.003;entryDx=0;entryDy=0;entryPerimeter=0;" parent="1" source="PzyJ5SBVM5l6bjQnl_92-48" target="88wGjKEd4IUI13QPvUiT-1" edge="1">
          <mxGeometry x="-0.0521" y="1" width="80" relative="1" as="geometry">
            <mxPoint x="1129" y="-176" as="sourcePoint" />
            <mxPoint x="1050" y="169" as="targetPoint" />
            <Array as="points" />
            <mxPoint as="offset" />
          </mxGeometry>
        </mxCell>
        <mxCell id="PzyJ5SBVM5l6bjQnl_92-51" value="&lt;h2&gt;NewsCommentDislikeEntity&lt;/h2&gt;" style="swimlane;fontStyle=0;childLayout=stackLayout;horizontal=1;startSize=30;fillColor=none;horizontalStack=0;resizeParent=1;resizeParentMax=0;resizeLast=0;collapsible=1;marginBottom=0;whiteSpace=wrap;html=1;" parent="1" vertex="1">
          <mxGeometry x="1830" y="120" width="260" height="56" as="geometry" />
        </mxCell>
        <mxCell id="PzyJ5SBVM5l6bjQnl_92-52" value="&lt;font style=&quot;font-size: 16px;&quot;&gt;- userId: int&lt;/font&gt;" style="text;strokeColor=none;fillColor=none;align=left;verticalAlign=top;spacingLeft=4;spacingRight=4;overflow=hidden;rotatable=0;points=[[0,0.5],[1,0.5]];portConstraint=eastwest;whiteSpace=wrap;html=1;" parent="PzyJ5SBVM5l6bjQnl_92-51" vertex="1">
          <mxGeometry y="30" width="260" height="26" as="geometry" />
        </mxCell>
        <mxCell id="PzyJ5SBVM5l6bjQnl_92-53" value="&lt;font style=&quot;font-size: 14px;&quot;&gt;0..*&lt;/font&gt;" style="html=1;verticalAlign=bottom;endArrow=block;curved=0;rounded=0;entryX=0.998;entryY=0.102;entryDx=0;entryDy=0;entryPerimeter=0;" parent="1" source="PzyJ5SBVM5l6bjQnl_92-52" target="88wGjKEd4IUI13QPvUiT-2" edge="1">
          <mxGeometry width="80" relative="1" as="geometry">
            <mxPoint x="2229" y="444" as="sourcePoint" />
            <mxPoint x="2050" y="350" as="targetPoint" />
            <Array as="points">
              <mxPoint x="1960" y="250" />
            </Array>
          </mxGeometry>
        </mxCell>
        <mxCell id="PzyJ5SBVM5l6bjQnl_92-54" value="&lt;font style=&quot;font-size: 14px;&quot;&gt;0..*&lt;/font&gt;" style="html=1;verticalAlign=bottom;endArrow=block;curved=0;rounded=0;exitX=0.5;exitY=0;exitDx=0;exitDy=0;entryX=0.474;entryY=0.936;entryDx=0;entryDy=0;entryPerimeter=0;" parent="1" source="PzyJ5SBVM5l6bjQnl_92-51" target="PzyJ5SBVM5l6bjQnl_92-43" edge="1">
          <mxGeometry x="-0.207" width="80" relative="1" as="geometry">
            <mxPoint x="2070" y="80" as="sourcePoint" />
            <mxPoint x="2100" y="80" as="targetPoint" />
            <Array as="points" />
            <mxPoint as="offset" />
          </mxGeometry>
        </mxCell>
        <mxCell id="PzyJ5SBVM5l6bjQnl_92-55" value="&lt;h2&gt;NewsCommentLikeEntity&lt;/h2&gt;" style="swimlane;fontStyle=0;childLayout=stackLayout;horizontal=1;startSize=30;fillColor=none;horizontalStack=0;resizeParent=1;resizeParentMax=0;resizeLast=0;collapsible=1;marginBottom=0;whiteSpace=wrap;html=1;" parent="1" vertex="1">
          <mxGeometry x="2040" y="210" width="262" height="56" as="geometry" />
        </mxCell>
        <mxCell id="PzyJ5SBVM5l6bjQnl_92-56" value="&lt;font style=&quot;font-size: 16px;&quot;&gt;- userId: int&lt;/font&gt;" style="text;strokeColor=none;fillColor=none;align=left;verticalAlign=top;spacingLeft=4;spacingRight=4;overflow=hidden;rotatable=0;points=[[0,0.5],[1,0.5]];portConstraint=eastwest;whiteSpace=wrap;html=1;" parent="PzyJ5SBVM5l6bjQnl_92-55" vertex="1">
          <mxGeometry y="30" width="262" height="26" as="geometry" />
        </mxCell>
        <mxCell id="PzyJ5SBVM5l6bjQnl_92-57" value="&lt;font style=&quot;font-size: 14px;&quot;&gt;0..*&lt;/font&gt;" style="html=1;verticalAlign=bottom;endArrow=block;curved=0;rounded=0;entryX=1.001;entryY=0.24;entryDx=0;entryDy=0;entryPerimeter=0;exitX=0.496;exitY=0.91;exitDx=0;exitDy=0;exitPerimeter=0;" parent="1" source="PzyJ5SBVM5l6bjQnl_92-56" target="88wGjKEd4IUI13QPvUiT-2" edge="1">
          <mxGeometry x="0.0676" width="80" relative="1" as="geometry">
            <mxPoint x="2180" y="280" as="sourcePoint" />
            <mxPoint x="1940" y="252" as="targetPoint" />
            <Array as="points">
              <mxPoint x="2170" y="304" />
            </Array>
            <mxPoint as="offset" />
          </mxGeometry>
        </mxCell>
        <mxCell id="PzyJ5SBVM5l6bjQnl_92-58" value="&lt;font style=&quot;font-size: 14px;&quot;&gt;0..*&lt;/font&gt;" style="html=1;verticalAlign=bottom;endArrow=block;curved=0;rounded=0;exitX=0.5;exitY=0;exitDx=0;exitDy=0;entryX=1;entryY=0.269;entryDx=0;entryDy=0;entryPerimeter=0;" parent="1" source="PzyJ5SBVM5l6bjQnl_92-55" target="PzyJ5SBVM5l6bjQnl_92-43" edge="1">
          <mxGeometry x="-0.2079" y="1" width="80" relative="1" as="geometry">
            <mxPoint x="2292" y="82" as="sourcePoint" />
            <mxPoint x="2180" y="-140" as="targetPoint" />
            <Array as="points">
              <mxPoint x="2170" y="27" />
            </Array>
            <mxPoint as="offset" />
          </mxGeometry>
        </mxCell>
        <mxCell id="PzyJ5SBVM5l6bjQnl_92-59" value="&lt;h2&gt;NewsCommentReportEntity&lt;/h2&gt;" style="swimlane;fontStyle=0;childLayout=stackLayout;horizontal=1;startSize=30;fillColor=none;horizontalStack=0;resizeParent=1;resizeParentMax=0;resizeLast=0;collapsible=1;marginBottom=0;whiteSpace=wrap;html=1;" parent="1" vertex="1">
          <mxGeometry x="2220" y="320" width="270" height="56" as="geometry" />
        </mxCell>
        <mxCell id="PzyJ5SBVM5l6bjQnl_92-60" value="&lt;font style=&quot;font-size: 16px;&quot;&gt;- userId: int&lt;/font&gt;" style="text;strokeColor=none;fillColor=none;align=left;verticalAlign=top;spacingLeft=4;spacingRight=4;overflow=hidden;rotatable=0;points=[[0,0.5],[1,0.5]];portConstraint=eastwest;whiteSpace=wrap;html=1;" parent="PzyJ5SBVM5l6bjQnl_92-59" vertex="1">
          <mxGeometry y="30" width="270" height="26" as="geometry" />
        </mxCell>
        <mxCell id="PzyJ5SBVM5l6bjQnl_92-61" value="&lt;font style=&quot;font-size: 14px;&quot;&gt;0..*&lt;/font&gt;" style="html=1;verticalAlign=bottom;endArrow=block;curved=0;rounded=0;exitX=0.5;exitY=0;exitDx=0;exitDy=0;entryX=1;entryY=0.25;entryDx=0;entryDy=0;" parent="1" source="PzyJ5SBVM5l6bjQnl_92-59" target="PzyJ5SBVM5l6bjQnl_92-42" edge="1">
          <mxGeometry x="-0.2079" y="1" width="80" relative="1" as="geometry">
            <mxPoint x="2472" y="225" as="sourcePoint" />
            <mxPoint x="2240" y="170" as="targetPoint" />
            <Array as="points">
              <mxPoint x="2355" y="4" />
            </Array>
            <mxPoint as="offset" />
          </mxGeometry>
        </mxCell>
        <mxCell id="PzyJ5SBVM5l6bjQnl_92-62" value="&lt;font style=&quot;font-size: 14px;&quot;&gt;0..*&lt;/font&gt;" style="html=1;verticalAlign=bottom;endArrow=block;curved=0;rounded=0;exitX=-0.015;exitY=-0.128;exitDx=0;exitDy=0;exitPerimeter=0;entryX=1.003;entryY=0.363;entryDx=0;entryDy=0;entryPerimeter=0;" parent="1" source="PzyJ5SBVM5l6bjQnl_92-60" target="88wGjKEd4IUI13QPvUiT-2" edge="1">
          <mxGeometry x="-0.1587" y="1" width="80" relative="1" as="geometry">
            <mxPoint x="2000" y="420" as="sourcePoint" />
            <mxPoint x="1999" y="574" as="targetPoint" />
            <Array as="points" />
            <mxPoint as="offset" />
          </mxGeometry>
        </mxCell>
        <mxCell id="PzyJ5SBVM5l6bjQnl_92-63" value="&lt;h2&gt;NewsFavoriteEntity&lt;/h2&gt;" style="swimlane;fontStyle=0;childLayout=stackLayout;horizontal=1;startSize=30;fillColor=none;horizontalStack=0;resizeParent=1;resizeParentMax=0;resizeLast=0;collapsible=1;marginBottom=0;whiteSpace=wrap;html=1;" parent="1" vertex="1">
          <mxGeometry x="1240" y="-340" width="220" height="56" as="geometry" />
        </mxCell>
        <mxCell id="PzyJ5SBVM5l6bjQnl_92-74" value="&lt;font style=&quot;font-size: 14px;&quot;&gt;0..*&lt;/font&gt;" style="html=1;verticalAlign=bottom;endArrow=block;curved=0;rounded=0;" parent="PzyJ5SBVM5l6bjQnl_92-63" edge="1">
          <mxGeometry x="0.3243" width="80" relative="1" as="geometry">
            <mxPoint x="410" y="60" as="sourcePoint" />
            <mxPoint x="120" y="510" as="targetPoint" />
            <Array as="points">
              <mxPoint x="410" y="170" />
              <mxPoint x="120" y="170" />
            </Array>
            <mxPoint as="offset" />
          </mxGeometry>
        </mxCell>
        <mxCell id="PzyJ5SBVM5l6bjQnl_92-64" value="&lt;font style=&quot;font-size: 16px;&quot;&gt;- userId: int&lt;/font&gt;" style="text;strokeColor=none;fillColor=none;align=left;verticalAlign=top;spacingLeft=4;spacingRight=4;overflow=hidden;rotatable=0;points=[[0,0.5],[1,0.5]];portConstraint=eastwest;whiteSpace=wrap;html=1;" parent="PzyJ5SBVM5l6bjQnl_92-63" vertex="1">
          <mxGeometry y="30" width="220" height="26" as="geometry" />
        </mxCell>
        <mxCell id="PzyJ5SBVM5l6bjQnl_92-65" value="&lt;font style=&quot;font-size: 14px;&quot;&gt;0..*&lt;/font&gt;" style="html=1;verticalAlign=bottom;endArrow=block;curved=0;rounded=0;exitX=-0.01;exitY=-0.09;exitDx=0;exitDy=0;exitPerimeter=0;" parent="1" source="PzyJ5SBVM5l6bjQnl_92-64" edge="1">
          <mxGeometry x="0.1466" width="80" relative="1" as="geometry">
            <mxPoint x="1139" y="-166" as="sourcePoint" />
            <mxPoint x="1160" y="168" as="targetPoint" />
            <Array as="points">
              <mxPoint x="1160" y="-312" />
            </Array>
            <mxPoint as="offset" />
          </mxGeometry>
        </mxCell>
        <mxCell id="PzyJ5SBVM5l6bjQnl_92-66" value="&lt;font style=&quot;font-size: 14px;&quot;&gt;0..*&lt;/font&gt;" style="html=1;verticalAlign=bottom;endArrow=block;curved=0;rounded=0;entryX=0;entryY=0.5;entryDx=0;entryDy=0;exitX=0.714;exitY=0.769;exitDx=0;exitDy=0;exitPerimeter=0;" parent="1" target="PzyJ5SBVM5l6bjQnl_92-38" edge="1">
          <mxGeometry x="0.2344" y="3" width="80" relative="1" as="geometry">
            <mxPoint x="1079.96" y="-283.9960000000001" as="sourcePoint" />
            <mxPoint x="1132" y="296.01" as="targetPoint" />
            <Array as="points">
              <mxPoint x="1080" y="3" />
            </Array>
            <mxPoint as="offset" />
          </mxGeometry>
        </mxCell>
        <mxCell id="PzyJ5SBVM5l6bjQnl_92-67" value="&lt;font style=&quot;font-size: 14px;&quot;&gt;0..*&lt;/font&gt;" style="html=1;verticalAlign=bottom;endArrow=block;curved=0;rounded=0;entryX=0;entryY=0.25;entryDx=0;entryDy=0;" parent="1" target="PzyJ5SBVM5l6bjQnl_92-37" edge="1">
          <mxGeometry x="-0.0049" width="80" relative="1" as="geometry">
            <mxPoint x="1270" y="-282" as="sourcePoint" />
            <mxPoint x="1610.04" y="86.9960000000001" as="targetPoint" />
            <Array as="points">
              <mxPoint x="1270" y="-26" />
            </Array>
            <mxPoint as="offset" />
          </mxGeometry>
        </mxCell>
        <mxCell id="PzyJ5SBVM5l6bjQnl_92-69" value="&lt;h2&gt;NewsLikeEntity&lt;/h2&gt;" style="swimlane;fontStyle=0;childLayout=stackLayout;horizontal=1;startSize=30;fillColor=none;horizontalStack=0;resizeParent=1;resizeParentMax=0;resizeLast=0;collapsible=1;marginBottom=0;whiteSpace=wrap;html=1;" parent="1" vertex="1">
          <mxGeometry x="1570" y="-340" width="220" height="56" as="geometry" />
        </mxCell>
        <mxCell id="PzyJ5SBVM5l6bjQnl_92-70" value="&lt;font style=&quot;font-size: 16px;&quot;&gt;- userId: int&lt;/font&gt;" style="text;strokeColor=none;fillColor=none;align=left;verticalAlign=top;spacingLeft=4;spacingRight=4;overflow=hidden;rotatable=0;points=[[0,0.5],[1,0.5]];portConstraint=eastwest;whiteSpace=wrap;html=1;" parent="PzyJ5SBVM5l6bjQnl_92-69" vertex="1">
          <mxGeometry y="30" width="220" height="26" as="geometry" />
        </mxCell>
        <mxCell id="PzyJ5SBVM5l6bjQnl_92-73" value="&lt;font style=&quot;font-size: 14px;&quot;&gt;0..*&lt;/font&gt;" style="html=1;verticalAlign=bottom;endArrow=block;curved=0;rounded=0;entryX=1;entryY=0.25;entryDx=0;entryDy=0;" parent="1" target="PzyJ5SBVM5l6bjQnl_92-37" edge="1">
          <mxGeometry x="0.0404" width="80" relative="1" as="geometry">
            <mxPoint x="1750" y="-282" as="sourcePoint" />
            <mxPoint x="1900" y="-26" as="targetPoint" />
            <Array as="points">
              <mxPoint x="1750" y="-26" />
            </Array>
            <mxPoint as="offset" />
          </mxGeometry>
        </mxCell>
        <mxCell id="PzyJ5SBVM5l6bjQnl_92-75" value="&lt;h2&gt;NotificationEntity&lt;/h2&gt;" style="swimlane;fontStyle=0;childLayout=stackLayout;horizontal=1;startSize=30;fillColor=none;horizontalStack=0;resizeParent=1;resizeParentMax=0;resizeLast=0;collapsible=1;marginBottom=0;whiteSpace=wrap;html=1;" parent="1" vertex="1">
          <mxGeometry x="2040" y="420" width="180" height="80" as="geometry" />
        </mxCell>
        <mxCell id="PzyJ5SBVM5l6bjQnl_92-76" value="&lt;font style=&quot;font-size: 16px;&quot;&gt;- notificationId: int&lt;/font&gt;&lt;div&gt;&lt;font style=&quot;font-size: 16px;&quot;&gt;- recipientId: int&lt;/font&gt;&lt;/div&gt;" style="text;strokeColor=none;fillColor=none;align=left;verticalAlign=top;spacingLeft=4;spacingRight=4;overflow=hidden;rotatable=0;points=[[0,0.5],[1,0.5]];portConstraint=eastwest;whiteSpace=wrap;html=1;" parent="PzyJ5SBVM5l6bjQnl_92-75" vertex="1">
          <mxGeometry y="30" width="180" height="50" as="geometry" />
        </mxCell>
        <mxCell id="PzyJ5SBVM5l6bjQnl_92-77" value="&lt;font style=&quot;font-size: 14px;&quot;&gt;0..*&lt;/font&gt;" style="html=1;verticalAlign=bottom;endArrow=block;curved=0;rounded=0;entryX=1.003;entryY=0.638;entryDx=0;entryDy=0;entryPerimeter=0;" parent="1" source="PzyJ5SBVM5l6bjQnl_92-75" target="88wGjKEd4IUI13QPvUiT-2" edge="1">
          <mxGeometry x="-0.0521" y="1" width="80" relative="1" as="geometry">
            <mxPoint x="2219" y="590" as="sourcePoint" />
            <mxPoint x="1731" y="454" as="targetPoint" />
            <Array as="points" />
            <mxPoint as="offset" />
          </mxGeometry>
        </mxCell>
        <mxCell id="PzyJ5SBVM5l6bjQnl_92-78" value="&lt;h2&gt;PetAdoptionEntity&lt;/h2&gt;" style="swimlane;fontStyle=0;childLayout=stackLayout;horizontal=1;startSize=30;fillColor=none;horizontalStack=0;resizeParent=1;resizeParentMax=0;resizeLast=0;collapsible=1;marginBottom=0;whiteSpace=wrap;html=1;" parent="1" vertex="1">
          <mxGeometry x="2040" y="580" width="190" height="60" as="geometry" />
        </mxCell>
        <mxCell id="PzyJ5SBVM5l6bjQnl_92-79" value="&lt;font style=&quot;font-size: 16px;&quot;&gt;- userId: int&lt;/font&gt;" style="text;strokeColor=none;fillColor=none;align=left;verticalAlign=top;spacingLeft=4;spacingRight=4;overflow=hidden;rotatable=0;points=[[0,0.5],[1,0.5]];portConstraint=eastwest;whiteSpace=wrap;html=1;" parent="PzyJ5SBVM5l6bjQnl_92-78" vertex="1">
          <mxGeometry y="30" width="190" height="30" as="geometry" />
        </mxCell>
        <mxCell id="PzyJ5SBVM5l6bjQnl_92-80" value="&lt;font style=&quot;font-size: 14px;&quot;&gt;0..*&lt;/font&gt;" style="html=1;verticalAlign=bottom;endArrow=block;curved=0;rounded=0;entryX=0.999;entryY=0.383;entryDx=0;entryDy=0;entryPerimeter=0;" parent="1" source="PzyJ5SBVM5l6bjQnl_92-78" target="88wGjKEd4IUI13QPvUiT-3" edge="1">
          <mxGeometry x="-0.0521" y="1" width="80" relative="1" as="geometry">
            <mxPoint x="2019" y="760" as="sourcePoint" />
            <mxPoint x="1523" y="629" as="targetPoint" />
            <Array as="points" />
            <mxPoint as="offset" />
          </mxGeometry>
        </mxCell>
        <mxCell id="PzyJ5SBVM5l6bjQnl_92-81" value="&lt;h2&gt;PostEntity&lt;/h2&gt;" style="swimlane;fontStyle=0;childLayout=stackLayout;horizontal=1;startSize=30;fillColor=none;horizontalStack=0;resizeParent=1;resizeParentMax=0;resizeLast=0;collapsible=1;marginBottom=0;whiteSpace=wrap;html=1;" parent="1" vertex="1">
          <mxGeometry x="1400" y="1130" width="140" height="56" as="geometry" />
        </mxCell>
        <mxCell id="PzyJ5SBVM5l6bjQnl_92-82" value="&lt;font style=&quot;font-size: 16px;&quot;&gt;- userId: int&lt;/font&gt;" style="text;strokeColor=none;fillColor=none;align=left;verticalAlign=top;spacingLeft=4;spacingRight=4;overflow=hidden;rotatable=0;points=[[0,0.5],[1,0.5]];portConstraint=eastwest;whiteSpace=wrap;html=1;" parent="PzyJ5SBVM5l6bjQnl_92-81" vertex="1">
          <mxGeometry y="30" width="140" height="26" as="geometry" />
        </mxCell>
        <mxCell id="PzyJ5SBVM5l6bjQnl_92-83" value="&lt;font style=&quot;font-size: 14px;&quot;&gt;0..*&lt;/font&gt;" style="html=1;verticalAlign=bottom;endArrow=block;curved=0;rounded=0;exitX=0.5;exitY=0;exitDx=0;exitDy=0;entryX=0.761;entryY=1.003;entryDx=0;entryDy=0;entryPerimeter=0;" parent="1" source="PzyJ5SBVM5l6bjQnl_92-81" target="88wGjKEd4IUI13QPvUiT-4" edge="1">
          <mxGeometry width="80" relative="1" as="geometry">
            <mxPoint x="1474" y="1186" as="sourcePoint" />
            <mxPoint x="1710" y="1870" as="targetPoint" />
            <Array as="points" />
          </mxGeometry>
        </mxCell>
        <mxCell id="PzyJ5SBVM5l6bjQnl_92-84" value="&lt;h2&gt;PostCommetEntity&lt;/h2&gt;" style="swimlane;fontStyle=0;childLayout=stackLayout;horizontal=1;startSize=30;fillColor=none;horizontalStack=0;resizeParent=1;resizeParentMax=0;resizeLast=0;collapsible=1;marginBottom=0;whiteSpace=wrap;html=1;" parent="1" vertex="1">
          <mxGeometry x="2068" y="1160" width="190" height="56" as="geometry" />
        </mxCell>
        <mxCell id="PzyJ5SBVM5l6bjQnl_92-85" value="&lt;font style=&quot;font-size: 16px;&quot;&gt;- userId: int&lt;/font&gt;" style="text;strokeColor=none;fillColor=none;align=left;verticalAlign=top;spacingLeft=4;spacingRight=4;overflow=hidden;rotatable=0;points=[[0,0.5],[1,0.5]];portConstraint=eastwest;whiteSpace=wrap;html=1;" parent="PzyJ5SBVM5l6bjQnl_92-84" vertex="1">
          <mxGeometry y="30" width="190" height="26" as="geometry" />
        </mxCell>
        <mxCell id="PzyJ5SBVM5l6bjQnl_92-87" value="&lt;font style=&quot;font-size: 14px;&quot;&gt;0..*&lt;/font&gt;" style="html=1;verticalAlign=bottom;endArrow=block;curved=0;rounded=0;exitX=0;exitY=0.25;exitDx=0;exitDy=0;entryX=1;entryY=0.5;entryDx=0;entryDy=0;" parent="1" source="PzyJ5SBVM5l6bjQnl_92-84" target="PzyJ5SBVM5l6bjQnl_92-82" edge="1">
          <mxGeometry width="80" relative="1" as="geometry">
            <mxPoint x="1870" y="1700" as="sourcePoint" />
            <mxPoint x="1600" y="1730" as="targetPoint" />
            <Array as="points" />
          </mxGeometry>
        </mxCell>
        <mxCell id="PzyJ5SBVM5l6bjQnl_92-88" value="&lt;h2&gt;PostDislikeEntity&lt;/h2&gt;" style="swimlane;fontStyle=0;childLayout=stackLayout;horizontal=1;startSize=30;fillColor=none;horizontalStack=0;resizeParent=1;resizeParentMax=0;resizeLast=0;collapsible=1;marginBottom=0;whiteSpace=wrap;html=1;" parent="1" vertex="1">
          <mxGeometry x="1130" y="1360" width="180" height="56" as="geometry" />
        </mxCell>
        <mxCell id="PzyJ5SBVM5l6bjQnl_92-89" value="&lt;font style=&quot;font-size: 16px;&quot;&gt;- userId: int&lt;/font&gt;" style="text;strokeColor=none;fillColor=none;align=left;verticalAlign=top;spacingLeft=4;spacingRight=4;overflow=hidden;rotatable=0;points=[[0,0.5],[1,0.5]];portConstraint=eastwest;whiteSpace=wrap;html=1;" parent="PzyJ5SBVM5l6bjQnl_92-88" vertex="1">
          <mxGeometry y="30" width="180" height="26" as="geometry" />
        </mxCell>
        <mxCell id="PzyJ5SBVM5l6bjQnl_92-90" value="&lt;font style=&quot;font-size: 14px;&quot;&gt;0..*&lt;/font&gt;" style="html=1;verticalAlign=bottom;endArrow=block;curved=0;rounded=0;entryX=0.523;entryY=0.994;entryDx=0;entryDy=0;entryPerimeter=0;exitX=0.5;exitY=0;exitDx=0;exitDy=0;" parent="1" source="PzyJ5SBVM5l6bjQnl_92-88" target="88wGjKEd4IUI13QPvUiT-4" edge="1">
          <mxGeometry x="-0.0521" y="1" width="80" relative="1" as="geometry">
            <mxPoint x="1349" y="1524" as="sourcePoint" />
            <mxPoint x="1262" y="1868" as="targetPoint" />
            <Array as="points" />
            <mxPoint as="offset" />
          </mxGeometry>
        </mxCell>
        <mxCell id="PzyJ5SBVM5l6bjQnl_92-91" value="&lt;h2&gt;PostCommentDislikeEntity&lt;/h2&gt;" style="swimlane;fontStyle=0;childLayout=stackLayout;horizontal=1;startSize=30;fillColor=none;horizontalStack=0;resizeParent=1;resizeParentMax=0;resizeLast=0;collapsible=1;marginBottom=0;whiteSpace=wrap;html=1;" parent="1" vertex="1">
          <mxGeometry x="1960" y="930" width="260" height="56" as="geometry" />
        </mxCell>
        <mxCell id="PzyJ5SBVM5l6bjQnl_92-92" value="&lt;font style=&quot;font-size: 16px;&quot;&gt;- userId: int&lt;/font&gt;" style="text;strokeColor=none;fillColor=none;align=left;verticalAlign=top;spacingLeft=4;spacingRight=4;overflow=hidden;rotatable=0;points=[[0,0.5],[1,0.5]];portConstraint=eastwest;whiteSpace=wrap;html=1;" parent="PzyJ5SBVM5l6bjQnl_92-91" vertex="1">
          <mxGeometry y="30" width="260" height="26" as="geometry" />
        </mxCell>
        <mxCell id="PzyJ5SBVM5l6bjQnl_92-93" value="&lt;font style=&quot;font-size: 14px;&quot;&gt;0..*&lt;/font&gt;" style="html=1;verticalAlign=bottom;endArrow=block;curved=0;rounded=0;entryX=1.002;entryY=0.932;entryDx=0;entryDy=0;entryPerimeter=0;" parent="1" source="PzyJ5SBVM5l6bjQnl_92-92" target="88wGjKEd4IUI13QPvUiT-4" edge="1">
          <mxGeometry width="80" relative="1" as="geometry">
            <mxPoint x="2449" y="2144" as="sourcePoint" />
            <mxPoint x="1938" y="1950" as="targetPoint" />
            <Array as="points" />
          </mxGeometry>
        </mxCell>
        <mxCell id="PzyJ5SBVM5l6bjQnl_92-94" value="&lt;font style=&quot;font-size: 14px;&quot;&gt;0..*&lt;/font&gt;" style="html=1;verticalAlign=bottom;endArrow=block;curved=0;rounded=0;exitX=0.477;exitY=0.962;exitDx=0;exitDy=0;exitPerimeter=0;entryX=0.081;entryY=-0.054;entryDx=0;entryDy=0;entryPerimeter=0;" parent="1" source="PzyJ5SBVM5l6bjQnl_92-92" target="PzyJ5SBVM5l6bjQnl_92-84" edge="1">
          <mxGeometry x="-0.207" width="80" relative="1" as="geometry">
            <mxPoint x="2151" y="983" as="sourcePoint" />
            <mxPoint x="2151" y="1160" as="targetPoint" />
            <Array as="points" />
            <mxPoint as="offset" />
          </mxGeometry>
        </mxCell>
        <mxCell id="PzyJ5SBVM5l6bjQnl_92-95" value="&lt;h2&gt;PostCommentLikeEntity&lt;/h2&gt;" style="swimlane;fontStyle=0;childLayout=stackLayout;horizontal=1;startSize=30;fillColor=none;horizontalStack=0;resizeParent=1;resizeParentMax=0;resizeLast=0;collapsible=1;marginBottom=0;whiteSpace=wrap;html=1;" parent="1" vertex="1">
          <mxGeometry x="2120" y="810" width="262" height="56" as="geometry" />
        </mxCell>
        <mxCell id="PzyJ5SBVM5l6bjQnl_92-96" value="&lt;font style=&quot;font-size: 16px;&quot;&gt;- userId: int&lt;/font&gt;" style="text;strokeColor=none;fillColor=none;align=left;verticalAlign=top;spacingLeft=4;spacingRight=4;overflow=hidden;rotatable=0;points=[[0,0.5],[1,0.5]];portConstraint=eastwest;whiteSpace=wrap;html=1;" parent="PzyJ5SBVM5l6bjQnl_92-95" vertex="1">
          <mxGeometry y="30" width="262" height="26" as="geometry" />
        </mxCell>
        <mxCell id="PzyJ5SBVM5l6bjQnl_92-97" value="&lt;font style=&quot;font-size: 14px;&quot;&gt;0..*&lt;/font&gt;" style="html=1;verticalAlign=bottom;endArrow=block;curved=0;rounded=0;entryX=1;entryY=0.25;entryDx=0;entryDy=0;exitX=0.791;exitY=1.038;exitDx=0;exitDy=0;exitPerimeter=0;" parent="1" source="PzyJ5SBVM5l6bjQnl_92-96" target="PzyJ5SBVM5l6bjQnl_92-84" edge="1">
          <mxGeometry x="-0.2454" y="-1" width="80" relative="1" as="geometry">
            <mxPoint x="2290" y="870" as="sourcePoint" />
            <mxPoint x="1941" y="2004" as="targetPoint" />
            <Array as="points">
              <mxPoint x="2330" y="1174" />
            </Array>
            <mxPoint as="offset" />
          </mxGeometry>
        </mxCell>
        <mxCell id="PzyJ5SBVM5l6bjQnl_92-99" value="&lt;h2&gt;PostCommentReportEntity&lt;/h2&gt;" style="swimlane;fontStyle=0;childLayout=stackLayout;horizontal=1;startSize=30;fillColor=none;horizontalStack=0;resizeParent=1;resizeParentMax=0;resizeLast=0;collapsible=1;marginBottom=0;whiteSpace=wrap;html=1;" parent="1" vertex="1">
          <mxGeometry x="2270" y="684" width="270" height="56" as="geometry" />
        </mxCell>
        <mxCell id="PzyJ5SBVM5l6bjQnl_92-100" value="&lt;font style=&quot;font-size: 16px;&quot;&gt;- userId: int&lt;/font&gt;" style="text;strokeColor=none;fillColor=none;align=left;verticalAlign=top;spacingLeft=4;spacingRight=4;overflow=hidden;rotatable=0;points=[[0,0.5],[1,0.5]];portConstraint=eastwest;whiteSpace=wrap;html=1;" parent="PzyJ5SBVM5l6bjQnl_92-99" vertex="1">
          <mxGeometry y="30" width="270" height="26" as="geometry" />
        </mxCell>
        <mxCell id="PzyJ5SBVM5l6bjQnl_92-101" value="&lt;font style=&quot;font-size: 14px;&quot;&gt;0..*&lt;/font&gt;" style="html=1;verticalAlign=bottom;endArrow=block;curved=0;rounded=0;exitX=0.568;exitY=1.013;exitDx=0;exitDy=0;entryX=1;entryY=0.808;entryDx=0;entryDy=0;exitPerimeter=0;entryPerimeter=0;" parent="1" source="PzyJ5SBVM5l6bjQnl_92-100" target="PzyJ5SBVM5l6bjQnl_92-85" edge="1">
          <mxGeometry x="-0.1516" width="80" relative="1" as="geometry">
            <mxPoint x="2692" y="1925" as="sourcePoint" />
            <mxPoint x="2460" y="1870" as="targetPoint" />
            <Array as="points">
              <mxPoint x="2423" y="1211" />
            </Array>
            <mxPoint as="offset" />
          </mxGeometry>
        </mxCell>
        <mxCell id="PzyJ5SBVM5l6bjQnl_92-102" value="&lt;font style=&quot;font-size: 14px;&quot;&gt;0..*&lt;/font&gt;" style="html=1;verticalAlign=bottom;endArrow=block;curved=0;rounded=0;exitX=-0.015;exitY=-0.128;exitDx=0;exitDy=0;exitPerimeter=0;" parent="1" source="PzyJ5SBVM5l6bjQnl_92-100" edge="1">
          <mxGeometry x="-0.1587" y="1" width="80" relative="1" as="geometry">
            <mxPoint x="2220" y="2120" as="sourcePoint" />
            <mxPoint x="1723" y="711" as="targetPoint" />
            <Array as="points" />
            <mxPoint as="offset" />
          </mxGeometry>
        </mxCell>
        <mxCell id="PzyJ5SBVM5l6bjQnl_92-103" value="&lt;h2&gt;PostFavoriteEntity&lt;/h2&gt;" style="swimlane;fontStyle=0;childLayout=stackLayout;horizontal=1;startSize=30;fillColor=none;horizontalStack=0;resizeParent=1;resizeParentMax=0;resizeLast=0;collapsible=1;marginBottom=0;whiteSpace=wrap;html=1;" parent="1" vertex="1">
          <mxGeometry x="1460" y="1360" width="220" height="56" as="geometry" />
        </mxCell>
        <mxCell id="PzyJ5SBVM5l6bjQnl_92-105" value="&lt;font style=&quot;font-size: 16px;&quot;&gt;- userId: int&lt;/font&gt;" style="text;strokeColor=none;fillColor=none;align=left;verticalAlign=top;spacingLeft=4;spacingRight=4;overflow=hidden;rotatable=0;points=[[0,0.5],[1,0.5]];portConstraint=eastwest;whiteSpace=wrap;html=1;" parent="PzyJ5SBVM5l6bjQnl_92-103" vertex="1">
          <mxGeometry y="30" width="220" height="26" as="geometry" />
        </mxCell>
        <mxCell id="PzyJ5SBVM5l6bjQnl_92-106" value="&lt;font style=&quot;font-size: 14px;&quot;&gt;0..*&lt;/font&gt;" style="html=1;verticalAlign=bottom;endArrow=block;curved=0;rounded=0;exitX=-0.01;exitY=-0.09;exitDx=0;exitDy=0;exitPerimeter=0;entryX=0.676;entryY=1.001;entryDx=0;entryDy=0;entryPerimeter=0;" parent="1" source="PzyJ5SBVM5l6bjQnl_92-105" target="88wGjKEd4IUI13QPvUiT-4" edge="1">
          <mxGeometry x="0.1466" width="80" relative="1" as="geometry">
            <mxPoint x="1359" y="1534" as="sourcePoint" />
            <mxPoint x="1380" y="1868" as="targetPoint" />
            <Array as="points">
              <mxPoint x="1380" y="1388" />
            </Array>
            <mxPoint as="offset" />
          </mxGeometry>
        </mxCell>
        <mxCell id="PzyJ5SBVM5l6bjQnl_92-107" value="&lt;font style=&quot;font-size: 14px;&quot;&gt;0..*&lt;/font&gt;" style="html=1;verticalAlign=bottom;endArrow=block;curved=0;rounded=0;entryX=-0.019;entryY=-0.038;entryDx=0;entryDy=0;exitX=0.944;exitY=0.006;exitDx=0;exitDy=0;exitPerimeter=0;entryPerimeter=0;" parent="1" source="PzyJ5SBVM5l6bjQnl_92-88" target="PzyJ5SBVM5l6bjQnl_92-82" edge="1">
          <mxGeometry x="0.0462" width="80" relative="1" as="geometry">
            <mxPoint x="1299.96" y="1416.004" as="sourcePoint" />
            <mxPoint x="1352" y="1996.0100000000002" as="targetPoint" />
            <Array as="points">
              <mxPoint x="1300" y="1160" />
            </Array>
            <mxPoint as="offset" />
          </mxGeometry>
        </mxCell>
        <mxCell id="PzyJ5SBVM5l6bjQnl_92-108" value="&lt;font style=&quot;font-size: 14px;&quot;&gt;0..*&lt;/font&gt;" style="html=1;verticalAlign=bottom;endArrow=block;curved=0;rounded=0;entryX=0.676;entryY=0.885;entryDx=0;entryDy=0;entryPerimeter=0;" parent="1" target="PzyJ5SBVM5l6bjQnl_92-82" edge="1">
          <mxGeometry x="-0.0049" width="80" relative="1" as="geometry">
            <mxPoint x="1496" y="1358" as="sourcePoint" />
            <mxPoint x="1490" y="1190" as="targetPoint" />
            <Array as="points" />
            <mxPoint as="offset" />
          </mxGeometry>
        </mxCell>
        <mxCell id="PzyJ5SBVM5l6bjQnl_92-109" value="&lt;h2&gt;PostLikeEntity&lt;/h2&gt;" style="swimlane;fontStyle=0;childLayout=stackLayout;horizontal=1;startSize=30;fillColor=none;horizontalStack=0;resizeParent=1;resizeParentMax=0;resizeLast=0;collapsible=1;marginBottom=0;whiteSpace=wrap;html=1;" parent="1" vertex="1">
          <mxGeometry x="1790" y="1360" width="220" height="56" as="geometry" />
        </mxCell>
        <mxCell id="PzyJ5SBVM5l6bjQnl_92-110" value="&lt;font style=&quot;font-size: 16px;&quot;&gt;- userId: int&lt;/font&gt;" style="text;strokeColor=none;fillColor=none;align=left;verticalAlign=top;spacingLeft=4;spacingRight=4;overflow=hidden;rotatable=0;points=[[0,0.5],[1,0.5]];portConstraint=eastwest;whiteSpace=wrap;html=1;" parent="PzyJ5SBVM5l6bjQnl_92-109" vertex="1">
          <mxGeometry y="30" width="220" height="26" as="geometry" />
        </mxCell>
        <mxCell id="PzyJ5SBVM5l6bjQnl_92-111" value="&lt;font style=&quot;font-size: 14px;&quot;&gt;0..*&lt;/font&gt;" style="html=1;verticalAlign=bottom;endArrow=block;curved=0;rounded=0;entryX=1;entryY=0.25;entryDx=0;entryDy=0;" parent="1" target="PzyJ5SBVM5l6bjQnl_92-81" edge="1">
          <mxGeometry x="0.0404" width="80" relative="1" as="geometry">
            <mxPoint x="1980" y="1360" as="sourcePoint" />
            <mxPoint x="2120" y="1674" as="targetPoint" />
            <Array as="points">
              <mxPoint x="1980" y="1144" />
            </Array>
            <mxPoint as="offset" />
          </mxGeometry>
        </mxCell>
        <mxCell id="PzyJ5SBVM5l6bjQnl_92-104" value="&lt;font style=&quot;font-size: 14px;&quot;&gt;0..*&lt;/font&gt;" style="html=1;verticalAlign=bottom;endArrow=block;curved=0;rounded=0;exitX=-0.015;exitY=0.09;exitDx=0;exitDy=0;exitPerimeter=0;entryX=0.98;entryY=1.01;entryDx=0;entryDy=0;entryPerimeter=0;" parent="1" source="PzyJ5SBVM5l6bjQnl_92-110" target="88wGjKEd4IUI13QPvUiT-4" edge="1">
          <mxGeometry x="-0.1211" width="80" relative="1" as="geometry">
            <mxPoint x="2068" y="820" as="sourcePoint" />
            <mxPoint x="1778" y="1270" as="targetPoint" />
            <Array as="points">
              <mxPoint x="1700" y="1392" />
              <mxPoint x="1700" y="1060" />
            </Array>
            <mxPoint as="offset" />
          </mxGeometry>
        </mxCell>
        <mxCell id="PzyJ5SBVM5l6bjQnl_92-114" value="&lt;font style=&quot;font-size: 14px;&quot;&gt;0..*&lt;/font&gt;" style="html=1;verticalAlign=bottom;endArrow=block;curved=0;rounded=0;exitX=0;exitY=0.013;exitDx=0;exitDy=0;exitPerimeter=0;" parent="1" source="PzyJ5SBVM5l6bjQnl_92-96" edge="1">
          <mxGeometry width="80" relative="1" as="geometry">
            <mxPoint x="1960" y="839" as="sourcePoint" />
            <mxPoint x="1720" y="840" as="targetPoint" />
            <Array as="points" />
          </mxGeometry>
        </mxCell>
      </root>
    </mxGraphModel>
  </diagram>
</mxfile>
